<?xml version="1.0" encoding="UTF-8" standalone="no"?>
<!DOCTYPE svg PUBLIC "-//W3C//DTD SVG 1.1//EN"
 "http://www.w3.org/Graphics/SVG/1.1/DTD/svg11.dtd">
<!-- Generated by graphviz version 2.44.0 (20200408.0750)
 -->
<!-- Title: G Pages: 1 -->
<svg width="1574pt" height="870pt"
 viewBox="0.00 0.00 1573.69 869.86" xmlns="http://www.w3.org/2000/svg" xmlns:xlink="http://www.w3.org/1999/xlink">
<g id="graph0" class="graph" transform="scale(1 1) rotate(0) translate(4 865.86)">
<title>G</title><style>.edge>path:hover{stroke-width:8}</style>
<polygon fill="white" stroke="transparent" points="-4,4 -4,-865.86 1569.69,-865.86 1569.69,4 -4,4"/>
<!-- argparse -->
<g id="node1" class="node">
<title>argparse</title><style>.edge>path:hover{stroke-width:8}</style>
<ellipse fill="#b65353" stroke="black" cx="277.96" cy="-522.24" rx="31.58" ry="18"/>
<text text-anchor="middle" x="277.96" y="-519.74" font-family="Helvetica,sans-Serif" font-size="10.00" fill="#ffffff">argparse</text>
</g>
<!-- devops_fitnesse_tools_create_fitnesse_artifact_createFitNesseArtifact -->
<g id="node2" class="node">
<title>devops_fitnesse_tools_create_fitnesse_artifact_createFitNesseArtifact</title><style>.edge>path:hover{stroke-width:8}</style>
<ellipse fill="#7e7644" stroke="black" cx="253.96" cy="-255.85" rx="86.03" ry="28.98"/>
<text text-anchor="middle" x="253.96" y="-264.35" font-family="Helvetica,sans-Serif" font-size="10.00" fill="#ffffff">devops_fitnesse_tools.</text>
<text text-anchor="middle" x="253.96" y="-253.35" font-family="Helvetica,sans-Serif" font-size="10.00" fill="#ffffff">create_fitnesse_artifact.</text>
<text text-anchor="middle" x="253.96" y="-242.35" font-family="Helvetica,sans-Serif" font-size="10.00" fill="#ffffff">createFitNesseArtifact</text>
</g>
<!-- argparse&#45;&gt;devops_fitnesse_tools_create_fitnesse_artifact_createFitNesseArtifact -->
<g id="edge1" class="edge">
<title>argparse&#45;&gt;devops_fitnesse_tools_create_fitnesse_artifact_createFitNesseArtifact</title><style>.edge>path:hover{stroke-width:8}</style>
<path fill="none" stroke="black" d="M296.09,-507.21C311.95,-493.41 333.18,-470.69 337.96,-444.81"/>
<path fill="none" stroke="black" d="M337.96,-356.61C323.51,-333.17 303.83,-309.48 287.15,-291.08"/>
<polygon fill="#b65353" stroke="black" points="289.55,-288.52 280.21,-283.53 284.4,-293.26 289.55,-288.52"/>
<path fill="none" stroke="black" d="M337.96,-442.81C344.76,-406.01 357.61,-390.46 337.96,-358.61"/>
</g>
<!-- devops_fitnesse_tools_create_fitnesse_artifact_helpers_artifact -->
<g id="node3" class="node">
<title>devops_fitnesse_tools_create_fitnesse_artifact_helpers_artifact</title><style>.edge>path:hover{stroke-width:8}</style>
<ellipse fill="#6a6339" stroke="black" cx="309.96" cy="-36.77" rx="86.03" ry="36.54"/>
<text text-anchor="middle" x="309.96" y="-50.77" font-family="Helvetica,sans-Serif" font-size="10.00" fill="#ffffff">devops_fitnesse_tools.</text>
<text text-anchor="middle" x="309.96" y="-39.77" font-family="Helvetica,sans-Serif" font-size="10.00" fill="#ffffff">create_fitnesse_artifact.</text>
<text text-anchor="middle" x="309.96" y="-28.77" font-family="Helvetica,sans-Serif" font-size="10.00" fill="#ffffff">helpers.</text>
<text text-anchor="middle" x="309.96" y="-17.77" font-family="Helvetica,sans-Serif" font-size="10.00" fill="#ffffff">artifact</text>
</g>
<!-- devops_fitnesse_tools_create_fitnesse_artifact_helpers_fitnesseArtifactChecks -->
<g id="node4" class="node">
<title>devops_fitnesse_tools_create_fitnesse_artifact_helpers_fitnesseArtifactChecks</title><style>.edge>path:hover{stroke-width:8}</style>
<ellipse fill="#857c47" stroke="black" cx="639.96" cy="-255.85" rx="86.03" ry="36.54"/>
<text text-anchor="middle" x="639.96" y="-269.85" font-family="Helvetica,sans-Serif" font-size="10.00" fill="#ffffff">devops_fitnesse_tools.</text>
<text text-anchor="middle" x="639.96" y="-258.85" font-family="Helvetica,sans-Serif" font-size="10.00" fill="#ffffff">create_fitnesse_artifact.</text>
<text text-anchor="middle" x="639.96" y="-247.85" font-family="Helvetica,sans-Serif" font-size="10.00" fill="#ffffff">helpers.</text>
<text text-anchor="middle" x="639.96" y="-236.85" font-family="Helvetica,sans-Serif" font-size="10.00" fill="#ffffff">fitnesseArtifactChecks</text>
</g>
<!-- devops_fitnesse_tools_create_fitnesse_artifact_helpers_fitnesseSettings -->
<g id="node5" class="node">
<title>devops_fitnesse_tools_create_fitnesse_artifact_helpers_fitnesseSettings</title><style>.edge>path:hover{stroke-width:8}</style>
<ellipse fill="#8b824b" stroke="black" cx="375.96" cy="-146.31" rx="86.03" ry="36.54"/>
<text text-anchor="middle" x="375.96" y="-160.31" font-family="Helvetica,sans-Serif" font-size="10.00" fill="#ffffff">devops_fitnesse_tools.</text>
<text text-anchor="middle" x="375.96" y="-149.31" font-family="Helvetica,sans-Serif" font-size="10.00" fill="#ffffff">create_fitnesse_artifact.</text>
<text text-anchor="middle" x="375.96" y="-138.31" font-family="Helvetica,sans-Serif" font-size="10.00" fill="#ffffff">helpers.</text>
<text text-anchor="middle" x="375.96" y="-127.31" font-family="Helvetica,sans-Serif" font-size="10.00" fill="#ffffff">fitnesseSettings</text>
</g>
<!-- devops_fitnesse_tools_test_helpers_test_fitnesseSettings -->
<g id="node6" class="node">
<title>devops_fitnesse_tools_test_helpers_test_fitnesseSettings</title><style>.edge>path:hover{stroke-width:8}</style>
<ellipse fill="#a69b59" stroke="black" cx="1188.96" cy="-255.85" rx="82.96" ry="36.54"/>
<text text-anchor="middle" x="1188.96" y="-269.85" font-family="Helvetica,sans-Serif" font-size="10.00" fill="#000000">devops_fitnesse_tools.</text>
<text text-anchor="middle" x="1188.96" y="-258.85" font-family="Helvetica,sans-Serif" font-size="10.00" fill="#000000">test.</text>
<text text-anchor="middle" x="1188.96" y="-247.85" font-family="Helvetica,sans-Serif" font-size="10.00" fill="#000000">helpers.</text>
<text text-anchor="middle" x="1188.96" y="-236.85" font-family="Helvetica,sans-Serif" font-size="10.00" fill="#000000">test_fitnesseSettings</text>
</g>
<!-- devops_fitnesse_tools_test_run_all_tests -->
<g id="node7" class="node">
<title>devops_fitnesse_tools_test_run_all_tests</title><style>.edge>path:hover{stroke-width:8}</style>
<ellipse fill="#9f9556" stroke="black" cx="1299.96" cy="-357.61" rx="82.96" ry="28.98"/>
<text text-anchor="middle" x="1299.96" y="-366.11" font-family="Helvetica,sans-Serif" font-size="10.00" fill="#000000">devops_fitnesse_tools.</text>
<text text-anchor="middle" x="1299.96" y="-355.11" font-family="Helvetica,sans-Serif" font-size="10.00" fill="#000000">test.</text>
<text text-anchor="middle" x="1299.96" y="-344.11" font-family="Helvetica,sans-Serif" font-size="10.00" fill="#000000">run_all_tests</text>
</g>
<!-- devops_fitnesse_tools_test_test_createFitNesseArtifact -->
<g id="node8" class="node">
<title>devops_fitnesse_tools_test_test_createFitNesseArtifact</title><style>.edge>path:hover{stroke-width:8}</style>
<ellipse fill="#8b824b" stroke="black" cx="952.96" cy="-357.61" rx="96.75" ry="28.98"/>
<text text-anchor="middle" x="952.96" y="-366.11" font-family="Helvetica,sans-Serif" font-size="10.00" fill="#ffffff">devops_fitnesse_tools.</text>
<text text-anchor="middle" x="952.96" y="-355.11" font-family="Helvetica,sans-Serif" font-size="10.00" fill="#ffffff">test.</text>
<text text-anchor="middle" x="952.96" y="-344.11" font-family="Helvetica,sans-Serif" font-size="10.00" fill="#ffffff">test_createFitNesseArtifact</text>
</g>
<!-- devops_fitnesse_tools_test_test_walk -->
<g id="node9" class="node">
<title>devops_fitnesse_tools_test_test_walk</title><style>.edge>path:hover{stroke-width:8}</style>
<ellipse fill="#9f9556" stroke="black" cx="1482.96" cy="-357.61" rx="82.96" ry="28.98"/>
<text text-anchor="middle" x="1482.96" y="-366.11" font-family="Helvetica,sans-Serif" font-size="10.00" fill="#000000">devops_fitnesse_tools.</text>
<text text-anchor="middle" x="1482.96" y="-355.11" font-family="Helvetica,sans-Serif" font-size="10.00" fill="#000000">test.</text>
<text text-anchor="middle" x="1482.96" y="-344.11" font-family="Helvetica,sans-Serif" font-size="10.00" fill="#000000">test_walk</text>
</g>
<!-- logging -->
<g id="node10" class="node">
<title>logging</title><style>.edge>path:hover{stroke-width:8}</style>
<ellipse fill="#53f910" stroke="black" cx="658.96" cy="-843.86" rx="27.84" ry="18"/>
<text text-anchor="middle" x="658.96" y="-841.36" font-family="Helvetica,sans-Serif" font-size="10.00" fill="#000000">logging</text>
</g>
<!-- logging&#45;&gt;devops_fitnesse_tools_create_fitnesse_artifact_createFitNesseArtifact -->
<g id="edge2" class="edge">
<title>logging&#45;&gt;devops_fitnesse_tools_create_fitnesse_artifact_createFitNesseArtifact</title><style>.edge>path:hover{stroke-width:8}</style>
<path fill="none" stroke="black" d="M139.96,-442.81C145.7,-391.27 136.75,-372.77 163.96,-328.62 173.87,-312.54 188.73,-298.55 203.53,-287.3"/>
<polygon fill="#53f910" stroke="black" points="205.7,-290.06 211.72,-281.34 201.57,-284.4 205.7,-290.06"/>
</g>
<!-- logging&#45;&gt;devops_fitnesse_tools_create_fitnesse_artifact_helpers_artifact -->
<g id="edge3" class="edge">
<title>logging&#45;&gt;devops_fitnesse_tools_create_fitnesse_artifact_helpers_artifact</title><style>.edge>path:hover{stroke-width:8}</style>
<path fill="none" stroke="black" d="M1077.96,-356.61C1050.02,-322.19 1088.66,-299.88 1077.96,-256.85"/>
</g>
<!-- logging&#45;&gt;devops_fitnesse_tools_create_fitnesse_artifact_helpers_fitnesseArtifactChecks -->
<g id="edge4" class="edge">
<title>logging&#45;&gt;devops_fitnesse_tools_create_fitnesse_artifact_helpers_fitnesseArtifactChecks</title><style>.edge>path:hover{stroke-width:8}</style>
<path fill="none" stroke="black" d="M1077.96,-356.61C1072.03,-342.79 1071.6,-336.76 1058.96,-328.62 1006.66,-294.94 841.58,-274.5 734.91,-264.46"/>
<polygon fill="#53f910" stroke="black" points="735.05,-260.96 724.77,-263.52 734.41,-267.93 735.05,-260.96"/>
<path fill="none" stroke="black" d="M741.96,-685.87C806.64,-583.93 919.36,-706 1005.96,-621.88 1092.98,-537.36 1125.83,-470.07 1077.96,-358.61"/>
</g>
<!-- logging&#45;&gt;devops_fitnesse_tools_create_fitnesse_artifact_helpers_fitnesseSettings -->
<g id="edge5" class="edge">
<title>logging&#45;&gt;devops_fitnesse_tools_create_fitnesse_artifact_helpers_fitnesseSettings</title><style>.edge>path:hover{stroke-width:8}</style>
<path fill="none" stroke="black" d="M168.96,-599.67C139.75,-573.51 117.66,-578.93 100.96,-543.45 92.93,-526.39 95.33,-519.02 100.96,-501.03 110.04,-472.01 135.54,-474.9 139.96,-444.81"/>
<path fill="none" stroke="black" d="M658.96,-751.86C636.87,-699.38 209.7,-641.46 168.96,-601.67"/>
<path fill="none" stroke="black" d="M139.96,-254.85C151,-240.63 145.21,-230.69 158.96,-219.08 194.41,-189.17 242.72,-171.61 284.76,-161.36"/>
<polygon fill="#53f910" stroke="black" points="285.8,-164.71 294.74,-159.03 284.21,-157.89 285.8,-164.71"/>
<path fill="none" stroke="black" d="M661.33,-825.66C663.31,-807.33 664.95,-777.62 658.96,-752.86"/>
<path fill="none" stroke="black" d="M139.96,-442.81C145.6,-360.35 89.26,-322.12 139.96,-256.85"/>
</g>
<!-- supporting_deploylist -->
<g id="node13" class="node">
<title>supporting_deploylist</title><style>.edge>path:hover{stroke-width:8}</style>
<ellipse fill="#407196" stroke="black" cx="525.96" cy="-522.24" rx="45.92" ry="21.43"/>
<text text-anchor="middle" x="525.96" y="-525.24" font-family="Helvetica,sans-Serif" font-size="10.00" fill="#ffffff">supporting.</text>
<text text-anchor="middle" x="525.96" y="-514.24" font-family="Helvetica,sans-Serif" font-size="10.00" fill="#ffffff">deploylist</text>
</g>
<!-- logging&#45;&gt;supporting_deploylist -->
<g id="edge6" class="edge">
<title>logging&#45;&gt;supporting_deploylist</title><style>.edge>path:hover{stroke-width:8}</style>
<path fill="none" stroke="black" d="M741.96,-685.87C749.59,-672.91 735.46,-666.24 722.96,-657.88 657.69,-614.2 606.42,-676.47 549.96,-621.88 531.89,-604.4 526.5,-575.77 525.28,-553.85"/>
<polygon fill="#53f910" stroke="black" points="528.78,-553.59 524.98,-543.7 521.78,-553.8 528.78,-553.59"/>
<path fill="none" stroke="black" d="M658.96,-751.86C646.3,-721.78 698.94,-737.95 722.96,-715.86 734.03,-705.69 734.19,-700.74 741.96,-687.87"/>
</g>
<!-- supporting_errorcodes -->
<g id="node14" class="node">
<title>supporting_errorcodes</title><style>.edge>path:hover{stroke-width:8}</style>
<ellipse fill="#0c8ae9" stroke="black" cx="770.96" cy="-600.67" rx="45.92" ry="21.43"/>
<text text-anchor="middle" x="770.96" y="-603.67" font-family="Helvetica,sans-Serif" font-size="10.00" fill="#ffffff">supporting.</text>
<text text-anchor="middle" x="770.96" y="-592.67" font-family="Helvetica,sans-Serif" font-size="10.00" fill="#ffffff">errorcodes</text>
</g>
<!-- logging&#45;&gt;supporting_errorcodes -->
<g id="edge7" class="edge">
<title>logging&#45;&gt;supporting_errorcodes</title><style>.edge>path:hover{stroke-width:8}</style>
<path fill="none" stroke="black" d="M741.96,-685.87C751.83,-669.1 759.01,-648.46 763.75,-631.82"/>
<polygon fill="#53f910" stroke="black" points="767.16,-632.6 766.39,-622.04 760.41,-630.78 767.16,-632.6"/>
</g>
<!-- supporting_generalSettings -->
<g id="node16" class="node">
<title>supporting_generalSettings</title><style>.edge>path:hover{stroke-width:8}</style>
<ellipse fill="#217bbf" stroke="black" cx="168.96" cy="-522.24" rx="59.29" ry="21.43"/>
<text text-anchor="middle" x="168.96" y="-525.24" font-family="Helvetica,sans-Serif" font-size="10.00" fill="#ffffff">supporting.</text>
<text text-anchor="middle" x="168.96" y="-514.24" font-family="Helvetica,sans-Serif" font-size="10.00" fill="#ffffff">generalSettings</text>
</g>
<!-- logging&#45;&gt;supporting_generalSettings -->
<g id="edge8" class="edge">
<title>logging&#45;&gt;supporting_generalSettings</title><style>.edge>path:hover{stroke-width:8}</style>
<path fill="none" stroke="black" d="M168.96,-599.67C156.48,-588.48 156.31,-569.73 159.35,-553.59"/>
<polygon fill="#53f910" stroke="black" points="162.85,-554.01 161.71,-543.48 156.03,-552.42 162.85,-554.01"/>
</g>
<!-- supporting_generatezip -->
<g id="node17" class="node">
<title>supporting_generatezip</title><style>.edge>path:hover{stroke-width:8}</style>
<ellipse fill="#3d6c8f" stroke="black" cx="714.96" cy="-443.81" rx="47.25" ry="21.43"/>
<text text-anchor="middle" x="714.96" y="-446.81" font-family="Helvetica,sans-Serif" font-size="10.00" fill="#ffffff">supporting.</text>
<text text-anchor="middle" x="714.96" y="-435.81" font-family="Helvetica,sans-Serif" font-size="10.00" fill="#ffffff">generatezip</text>
</g>
<!-- logging&#45;&gt;supporting_generatezip -->
<g id="edge9" class="edge">
<title>logging&#45;&gt;supporting_generatezip</title><style>.edge>path:hover{stroke-width:8}</style>
<path fill="none" stroke="black" d="M741.96,-685.87C757.83,-659.59 721.93,-651.99 715.96,-621.88 705.94,-571.32 708.61,-511.04 711.65,-475.46"/>
<polygon fill="#53f910" stroke="black" points="715.16,-475.52 712.6,-465.25 708.19,-474.88 715.16,-475.52"/>
</g>
<!-- supporting_logging_customLogger -->
<g id="node19" class="node">
<title>supporting_logging_customLogger</title><style>.edge>path:hover{stroke-width:8}</style>
<ellipse fill="#068bef" stroke="black" cx="658.96" cy="-686.87" rx="55.31" ry="28.98"/>
<text text-anchor="middle" x="658.96" y="-695.37" font-family="Helvetica,sans-Serif" font-size="10.00" fill="#ffffff">supporting.</text>
<text text-anchor="middle" x="658.96" y="-684.37" font-family="Helvetica,sans-Serif" font-size="10.00" fill="#ffffff">logging.</text>
<text text-anchor="middle" x="658.96" y="-673.37" font-family="Helvetica,sans-Serif" font-size="10.00" fill="#ffffff">customLogger</text>
</g>
<!-- logging&#45;&gt;supporting_logging_customLogger -->
<g id="edge10" class="edge">
<title>logging&#45;&gt;supporting_logging_customLogger</title><style>.edge>path:hover{stroke-width:8}</style>
<path fill="none" stroke="black" d="M658.96,-751.86C655.59,-743.84 654.28,-734.73 654.08,-725.96"/>
<polygon fill="#53f910" stroke="black" points="657.58,-725.98 654.32,-715.9 650.59,-725.81 657.58,-725.98"/>
</g>
<!-- pathlib -->
<g id="node11" class="node">
<title>pathlib</title><style>.edge>path:hover{stroke-width:8}</style>
<ellipse fill="#2fdb91" stroke="black" cx="861.96" cy="-600.67" rx="27" ry="18"/>
<text text-anchor="middle" x="861.96" y="-598.17" font-family="Helvetica,sans-Serif" font-size="10.00" fill="#000000">pathlib</text>
</g>
<!-- pathlib&#45;&gt;devops_fitnesse_tools_create_fitnesse_artifact_helpers_artifact -->
<g id="edge11" class="edge">
<title>pathlib&#45;&gt;devops_fitnesse_tools_create_fitnesse_artifact_helpers_artifact</title><style>.edge>path:hover{stroke-width:8}</style>
<path fill="none" stroke="black" d="M865.96,-442.81C837.93,-412.82 808.87,-394.96 827.96,-358.61"/>
</g>
<!-- pathlib&#45;&gt;devops_fitnesse_tools_create_fitnesse_artifact_helpers_fitnesseArtifactChecks -->
<g id="edge12" class="edge">
<title>pathlib&#45;&gt;devops_fitnesse_tools_create_fitnesse_artifact_helpers_fitnesseArtifactChecks</title><style>.edge>path:hover{stroke-width:8}</style>
<path fill="none" stroke="black" d="M874.81,-584.52C886.03,-569.92 900.97,-546.67 903.96,-523.24"/>
<path fill="none" stroke="black" d="M903.96,-521.24C908.77,-483.61 891.86,-472.53 865.96,-444.81"/>
<path fill="none" stroke="black" d="M865.96,-442.81C856.44,-432.62 854.33,-429.04 841.96,-422.6 744.06,-371.6 632.56,-464.68 601.96,-358.61"/>
</g>
<!-- pathlib&#45;&gt;devops_fitnesse_tools_test_test_createFitNesseArtifact -->
<g id="edge13" class="edge">
<title>pathlib&#45;&gt;devops_fitnesse_tools_test_test_createFitNesseArtifact</title><style>.edge>path:hover{stroke-width:8}</style>
<path fill="none" stroke="black" d="M903.96,-521.24C908.26,-487.55 894.17,-477.34 903.96,-444.81"/>
</g>
<!-- pathlib&#45;&gt;supporting_generatezip -->
<g id="edge14" class="edge">
<title>pathlib&#45;&gt;supporting_generatezip</title><style>.edge>path:hover{stroke-width:8}</style>
<path fill="none" stroke="black" d="M855.17,-583.07C845.96,-562.08 827.87,-525.71 803.96,-501.03 790.01,-486.63 771.68,-474.25 755.28,-464.8"/>
<polygon fill="#2fdb91" stroke="black" points="756.85,-461.67 746.41,-459.86 753.44,-467.78 756.85,-461.67"/>
</g>
<!-- supporting -->
<g id="node12" class="node">
<title>supporting</title><style>.edge>path:hover{stroke-width:8}</style>
<ellipse fill="#1095f9" stroke="black" cx="594.96" cy="-600.67" rx="36.49" ry="18"/>
<text text-anchor="middle" x="594.96" y="-598.17" font-family="Helvetica,sans-Serif" font-size="10.00" fill="#ffffff">supporting</text>
</g>
<!-- supporting&#45;&gt;devops_fitnesse_tools_create_fitnesse_artifact_createFitNesseArtifact -->
<g id="edge15" class="edge">
<title>supporting&#45;&gt;devops_fitnesse_tools_create_fitnesse_artifact_createFitNesseArtifact</title><style>.edge>path:hover{stroke-width:8}</style>
<path fill="none" stroke="black" d="M599.96,-521.24C589.92,-489.53 518.41,-468.67 511.96,-465.03 433.07,-420.39 385.55,-435.77 337.96,-358.61"/>
<path fill="none" stroke="black" d="M598.98,-582.71C602.01,-567.05 604.89,-543.25 599.96,-523.24"/>
</g>
<!-- supporting&#45;&gt;devops_fitnesse_tools_create_fitnesse_artifact_helpers_artifact -->
<g id="edge16" class="edge">
<title>supporting&#45;&gt;devops_fitnesse_tools_create_fitnesse_artifact_helpers_artifact</title><style>.edge>path:hover{stroke-width:8}</style>
<path fill="none" stroke="black" d="M563.96,-442.81C556.11,-406.22 578.01,-393.3 563.96,-358.61"/>
</g>
<!-- supporting&#45;&gt;devops_fitnesse_tools_create_fitnesse_artifact_helpers_fitnesseArtifactChecks -->
<g id="edge17" class="edge">
<title>supporting&#45;&gt;devops_fitnesse_tools_create_fitnesse_artifact_helpers_fitnesseArtifactChecks</title><style>.edge>path:hover{stroke-width:8}</style>
<path fill="none" stroke="black" d="M563.96,-442.81C552.3,-403.45 613.34,-398.06 601.96,-358.61"/>
<path fill="none" stroke="black" d="M601.96,-356.61C596.59,-337.98 601.95,-317.91 610.18,-300.7"/>
<polygon fill="#1095f9" stroke="black" points="613.48,-301.94 614.99,-291.45 607.27,-298.71 613.48,-301.94"/>
</g>
<!-- supporting&#45;&gt;devops_fitnesse_tools_create_fitnesse_artifact_helpers_fitnesseSettings -->
<g id="edge18" class="edge">
<title>supporting&#45;&gt;devops_fitnesse_tools_create_fitnesse_artifact_helpers_fitnesseSettings</title><style>.edge>path:hover{stroke-width:8}</style>
<path fill="none" stroke="black" d="M563.96,-442.81C534.07,-341.96 458.73,-242.47 413.01,-188.56"/>
<polygon fill="#1095f9" stroke="black" points="415.65,-186.26 406.49,-180.94 410.34,-190.81 415.65,-186.26"/>
<path fill="none" stroke="black" d="M599.96,-521.24C590.99,-484.78 571.84,-481.53 563.96,-444.81"/>
</g>
<!-- supporting&#45;&gt;devops_fitnesse_tools_test_test_createFitNesseArtifact -->
<g id="edge19" class="edge">
<title>supporting&#45;&gt;devops_fitnesse_tools_test_test_createFitNesseArtifact</title><style>.edge>path:hover{stroke-width:8}</style>
<path fill="none" stroke="black" d="M599.96,-521.24C584.99,-472.4 617.18,-451.99 658.96,-422.6 726.76,-374.91 761.08,-404.74 841.96,-386.6 851.56,-384.45 861.6,-382.08 871.54,-379.66"/>
<polygon fill="#1095f9" stroke="black" points="872.56,-383.02 881.44,-377.23 870.9,-376.22 872.56,-383.02"/>
</g>
<!-- supporting_deploylist&#45;&gt;devops_fitnesse_tools_create_fitnesse_artifact_helpers_artifact -->
<g id="edge20" class="edge">
<title>supporting_deploylist&#45;&gt;devops_fitnesse_tools_create_fitnesse_artifact_helpers_artifact</title><style>.edge>path:hover{stroke-width:8}</style>
<path fill="none" stroke="black" d="M521.56,-501.12C519.07,-485.12 517.87,-462.56 525.96,-444.81"/>
</g>
<!-- supporting_errorcodes&#45;&gt;devops_fitnesse_tools_create_fitnesse_artifact_createFitNesseArtifact -->
<g id="edge21" class="edge">
<title>supporting_errorcodes&#45;&gt;devops_fitnesse_tools_create_fitnesse_artifact_createFitNesseArtifact</title><style>.edge>path:hover{stroke-width:8}</style>
<path fill="none" stroke="black" d="M789.96,-521.24C785.32,-476.84 802.98,-453.71 770.96,-422.6 699.59,-353.25 642.48,-423.27 549.96,-386.6 507.11,-369.62 505.24,-349.13 463.96,-328.62 421.16,-307.34 370.53,-289.83 329.7,-277.44"/>
<polygon fill="#0c8ae9" stroke="black" points="330.67,-274.07 320.08,-274.55 328.66,-280.78 330.67,-274.07"/>
</g>
<!-- supporting_errorcodes&#45;&gt;devops_fitnesse_tools_create_fitnesse_artifact_helpers_artifact -->
<g id="edge22" class="edge">
<title>supporting_errorcodes&#45;&gt;devops_fitnesse_tools_create_fitnesse_artifact_helpers_artifact</title><style>.edge>path:hover{stroke-width:8}</style>
<path fill="none" stroke="black" d="M827.96,-442.81C804.28,-413.83 810.56,-391.74 827.96,-358.61"/>
<path fill="none" stroke="black" d="M827.96,-356.61C834.95,-343.3 834.88,-337.57 846.96,-328.62 933.33,-264.6 1103.9,-361.18 1077.96,-256.85"/>
<path fill="none" stroke="black" d="M1077.96,-254.85C1017.65,-12.29 743.47,-270.45 525.96,-147.31"/>
</g>
<!-- supporting_errorcodes&#45;&gt;devops_fitnesse_tools_create_fitnesse_artifact_helpers_fitnesseArtifactChecks -->
<g id="edge23" class="edge">
<title>supporting_errorcodes&#45;&gt;devops_fitnesse_tools_create_fitnesse_artifact_helpers_fitnesseArtifactChecks</title><style>.edge>path:hover{stroke-width:8}</style>
<path fill="none" stroke="black" d="M801.68,-584.68C824.14,-571.84 852.88,-551.01 865.96,-523.24"/>
<path fill="none" stroke="black" d="M827.96,-442.81C760.13,-359.81 631.67,-461.6 601.96,-358.61"/>
<path fill="none" stroke="black" d="M865.96,-521.24C882.13,-486.92 851.97,-474.19 827.96,-444.81"/>
</g>
<!-- supporting_errorcodes&#45;&gt;devops_fitnesse_tools_test_test_createFitNesseArtifact -->
<g id="edge24" class="edge">
<title>supporting_errorcodes&#45;&gt;devops_fitnesse_tools_test_test_createFitNesseArtifact</title><style>.edge>path:hover{stroke-width:8}</style>
<path fill="none" stroke="black" d="M865.96,-521.24C882.13,-486.92 893.03,-481.14 903.96,-444.81"/>
<path fill="none" stroke="black" d="M903.96,-442.81C909.01,-426.05 917.99,-409.07 926.89,-394.8"/>
<polygon fill="#0c8ae9" stroke="black" points="929.9,-396.59 932.39,-386.29 924.02,-392.79 929.9,-396.59"/>
</g>
<!-- supporting_errorcodes&#45;&gt;supporting_deploylist -->
<g id="edge25" class="edge">
<title>supporting_errorcodes&#45;&gt;supporting_deploylist</title><style>.edge>path:hover{stroke-width:8}</style>
<path fill="none" stroke="black" d="M732.95,-588.48C695.48,-577.36 636.63,-559.68 585.96,-543.45 581.36,-541.98 576.57,-540.42 571.8,-538.84"/>
<polygon fill="#0c8ae9" stroke="black" points="572.67,-535.44 562.07,-535.6 570.46,-542.08 572.67,-535.44"/>
</g>
<!-- supporting_errorcodes&#45;&gt;supporting_generatezip -->
<g id="edge26" class="edge">
<title>supporting_errorcodes&#45;&gt;supporting_generatezip</title><style>.edge>path:hover{stroke-width:8}</style>
<path fill="none" stroke="black" d="M779.87,-579.82C785.74,-564.56 792.01,-542.82 789.96,-523.24"/>
<path fill="none" stroke="black" d="M789.96,-521.24C787.59,-498.52 770.21,-480 752.78,-466.88"/>
<polygon fill="#0c8ae9" stroke="black" points="754.47,-463.79 744.28,-460.89 750.43,-469.51 754.47,-463.79"/>
</g>
<!-- supporting_filehandling -->
<g id="node15" class="node">
<title>supporting_filehandling</title><style>.edge>path:hover{stroke-width:8}</style>
<ellipse fill="#4981ac" stroke="black" cx="45.96" cy="-443.81" rx="45.92" ry="21.43"/>
<text text-anchor="middle" x="45.96" y="-446.81" font-family="Helvetica,sans-Serif" font-size="10.00" fill="#ffffff">supporting.</text>
<text text-anchor="middle" x="45.96" y="-435.81" font-family="Helvetica,sans-Serif" font-size="10.00" fill="#ffffff">filehandling</text>
</g>
<!-- supporting_filehandling&#45;&gt;devops_fitnesse_tools_create_fitnesse_artifact_helpers_artifact -->
<g id="edge27" class="edge">
<title>supporting_filehandling&#45;&gt;devops_fitnesse_tools_create_fitnesse_artifact_helpers_artifact</title><style>.edge>path:hover{stroke-width:8}</style>
<path fill="none" stroke="black" d="M101.96,-254.85C116.79,-172.77 194.15,-108.58 250.2,-71.92"/>
<polygon fill="#4981ac" stroke="black" points="252.13,-74.85 258.65,-66.5 248.34,-68.95 252.13,-74.85"/>
<path fill="none" stroke="black" d="M43.17,-422.36C40.77,-399 39.19,-359.95 49.96,-328.62 62.76,-291.37 85.2,-292.49 101.96,-256.85"/>
</g>
<!-- supporting_generalSettings&#45;&gt;devops_fitnesse_tools_create_fitnesse_artifact_createFitNesseArtifact -->
<g id="edge28" class="edge">
<title>supporting_generalSettings&#45;&gt;devops_fitnesse_tools_create_fitnesse_artifact_createFitNesseArtifact</title><style>.edge>path:hover{stroke-width:8}</style>
<path fill="none" stroke="black" d="M177.96,-356.61C180.33,-331 196.7,-307.78 213.64,-290.2"/>
<polygon fill="#217bbf" stroke="black" points="216.24,-292.55 220.89,-283.02 211.32,-287.57 216.24,-292.55"/>
</g>
<!-- supporting_generalSettings&#45;&gt;devops_fitnesse_tools_create_fitnesse_artifact_helpers_artifact -->
<g id="edge29" class="edge">
<title>supporting_generalSettings&#45;&gt;devops_fitnesse_tools_create_fitnesse_artifact_helpers_artifact</title><style>.edge>path:hover{stroke-width:8}</style>
<path fill="none" stroke="black" d="M174.28,-501.08C177.64,-485.64 180.85,-463.83 177.96,-444.81"/>
<path fill="none" stroke="black" d="M177.96,-442.81C164.58,-354.54 67.59,-339.25 101.96,-256.85"/>
</g>
<!-- supporting_generalSettings&#45;&gt;devops_fitnesse_tools_create_fitnesse_artifact_helpers_fitnesseSettings -->
<g id="edge30" class="edge">
<title>supporting_generalSettings&#45;&gt;devops_fitnesse_tools_create_fitnesse_artifact_helpers_fitnesseSettings</title><style>.edge>path:hover{stroke-width:8}</style>
<path fill="none" stroke="black" d="M177.96,-356.61C182.33,-309.36 110.86,-294.32 139.96,-256.85"/>
<path fill="none" stroke="black" d="M177.96,-442.81C172.35,-405.81 174.51,-395.87 177.96,-358.61"/>
</g>
<!-- supporting_generalSettings&#45;&gt;supporting_filehandling -->
<g id="edge31" class="edge">
<title>supporting_generalSettings&#45;&gt;supporting_filehandling</title><style>.edge>path:hover{stroke-width:8}</style>
<path fill="none" stroke="black" d="M140.43,-503.51C122.79,-492.55 100,-478.39 81.23,-466.73"/>
<polygon fill="#217bbf" stroke="black" points="82.99,-463.7 72.65,-461.4 79.3,-469.65 82.99,-463.7"/>
</g>
<!-- supporting_generatezip&#45;&gt;devops_fitnesse_tools_create_fitnesse_artifact_helpers_artifact -->
<g id="edge32" class="edge">
<title>supporting_generatezip&#45;&gt;devops_fitnesse_tools_create_fitnesse_artifact_helpers_artifact</title><style>.edge>path:hover{stroke-width:8}</style>
<path fill="none" stroke="black" d="M672.25,-434.27C634.1,-423.92 581.59,-402.15 563.96,-358.61"/>
</g>
<!-- supporting_logging -->
<g id="node18" class="node">
<title>supporting_logging</title><style>.edge>path:hover{stroke-width:8}</style>
<ellipse fill="#1095f9" stroke="black" cx="394.96" cy="-600.67" rx="45.92" ry="21.43"/>
<text text-anchor="middle" x="394.96" y="-603.67" font-family="Helvetica,sans-Serif" font-size="10.00" fill="#ffffff">supporting.</text>
<text text-anchor="middle" x="394.96" y="-592.67" font-family="Helvetica,sans-Serif" font-size="10.00" fill="#ffffff">logging</text>
</g>
<!-- supporting_logging&#45;&gt;devops_fitnesse_tools_create_fitnesse_artifact_createFitNesseArtifact -->
<g id="edge33" class="edge">
<title>supporting_logging&#45;&gt;devops_fitnesse_tools_create_fitnesse_artifact_createFitNesseArtifact</title><style>.edge>path:hover{stroke-width:8}</style>
<path fill="none" stroke="black" d="M373.17,-581.87C358.35,-567.82 340.91,-546.73 337.96,-523.24"/>
</g>
<!-- supporting_logging&#45;&gt;devops_fitnesse_tools_create_fitnesse_artifact_helpers_artifact -->
<g id="edge34" class="edge">
<title>supporting_logging&#45;&gt;devops_fitnesse_tools_create_fitnesse_artifact_helpers_artifact</title><style>.edge>path:hover{stroke-width:8}</style>
<path fill="none" stroke="black" d="M525.96,-145.31C500.9,-130.4 496.58,-123.47 470.96,-109.54 442.34,-93.98 409.68,-78.95 381.29,-66.7"/>
<polygon fill="#1095f9" stroke="black" points="382.4,-63.37 371.83,-62.65 379.65,-69.8 382.4,-63.37"/>
<path fill="none" stroke="black" d="M413.96,-521.24C454.07,-459.01 423.61,-427.79 449.96,-358.61"/>
<path fill="none" stroke="black" d="M449.96,-356.61C460.86,-334.4 547.22,-159.96 525.96,-147.31"/>
</g>
<!-- supporting_logging&#45;&gt;devops_fitnesse_tools_create_fitnesse_artifact_helpers_fitnesseArtifactChecks -->
<g id="edge35" class="edge">
<title>supporting_logging&#45;&gt;devops_fitnesse_tools_create_fitnesse_artifact_helpers_fitnesseArtifactChecks</title><style>.edge>path:hover{stroke-width:8}</style>
<path fill="none" stroke="black" d="M449.96,-356.61C466.26,-313.81 510.72,-289.11 552.53,-275"/>
<polygon fill="#1095f9" stroke="black" points="553.78,-278.27 562.24,-271.89 551.65,-271.61 553.78,-278.27"/>
</g>
<!-- supporting_logging&#45;&gt;devops_fitnesse_tools_create_fitnesse_artifact_helpers_fitnesseSettings -->
<g id="edge36" class="edge">
<title>supporting_logging&#45;&gt;devops_fitnesse_tools_create_fitnesse_artifact_helpers_fitnesseSettings</title><style>.edge>path:hover{stroke-width:8}</style>
<path fill="none" stroke="black" d="M396.4,-579.42C398.36,-563.13 403,-540.25 413.96,-523.24"/>
<path fill="none" stroke="black" d="M413.96,-521.24C434.51,-489.35 380.46,-482.48 375.96,-444.81"/>
</g>
<!-- supporting_logging&#45;&gt;supporting_deploylist -->
<g id="edge37" class="edge">
<title>supporting_logging&#45;&gt;supporting_deploylist</title><style>.edge>path:hover{stroke-width:8}</style>
<path fill="none" stroke="black" d="M422.42,-583.64C441.86,-572.31 468.12,-556.98 489.34,-544.61"/>
<polygon fill="#1095f9" stroke="black" points="491.21,-547.57 498.09,-539.5 487.68,-541.52 491.21,-547.57"/>
</g>
<!-- supporting_logging&#45;&gt;supporting_generalSettings -->
<g id="edge38" class="edge">
<title>supporting_logging&#45;&gt;supporting_generalSettings</title><style>.edge>path:hover{stroke-width:8}</style>
<path fill="none" stroke="black" d="M358.9,-587.47C321.56,-574.84 262.86,-554.99 220.6,-540.7"/>
<polygon fill="#1095f9" stroke="black" points="221.64,-537.36 211.04,-537.47 219.4,-543.99 221.64,-537.36"/>
</g>
<!-- supporting_logging&#45;&gt;supporting_generatezip -->
<g id="edge39" class="edge">
<title>supporting_logging&#45;&gt;supporting_generatezip</title><style>.edge>path:hover{stroke-width:8}</style>
<path fill="none" stroke="black" d="M413.96,-521.24C427.47,-500.28 578.7,-469.69 661.51,-454.34"/>
<polygon fill="#1095f9" stroke="black" points="662.3,-457.76 671.5,-452.5 661.03,-450.87 662.3,-457.76"/>
</g>
<!-- supporting_logging_customLogger&#45;&gt;devops_fitnesse_tools_create_fitnesse_artifact_createFitNesseArtifact -->
<g id="edge40" class="edge">
<title>supporting_logging_customLogger&#45;&gt;devops_fitnesse_tools_create_fitnesse_artifact_createFitNesseArtifact</title><style>.edge>path:hover{stroke-width:8}</style>
<path fill="none" stroke="black" d="M337.96,-521.24C333.73,-487.54 331.79,-478.22 337.96,-444.81"/>
<path fill="none" stroke="black" d="M320.96,-599.67C295.42,-576.04 342.3,-557.77 337.96,-523.24"/>
</g>
<!-- supporting_logging_customLogger&#45;&gt;devops_fitnesse_tools_create_fitnesse_artifact_helpers_artifact -->
<g id="edge41" class="edge">
<title>supporting_logging_customLogger&#45;&gt;devops_fitnesse_tools_create_fitnesse_artifact_helpers_artifact</title><style>.edge>path:hover{stroke-width:8}</style>
<path fill="none" stroke="black" d="M525.96,-442.81C543,-405.46 579.37,-396.67 563.96,-358.61"/>
<path fill="none" stroke="black" d="M468.96,-599.67C449.98,-560.14 453.99,-541.46 470.96,-501.03 484.49,-468.8 511.45,-476.61 525.96,-444.81"/>
<path fill="none" stroke="black" d="M563.96,-356.61C552.83,-329.11 551.13,-321.64 544.96,-292.62 538.19,-260.76 554.3,-163.35 525.96,-147.31"/>
<path fill="none" stroke="black" d="M604.5,-680.89C556.72,-673.09 491.45,-653.07 468.96,-601.67"/>
</g>
<!-- supporting_logging_customLogger&#45;&gt;devops_fitnesse_tools_create_fitnesse_artifact_helpers_fitnesseArtifactChecks -->
<g id="edge42" class="edge">
<title>supporting_logging_customLogger&#45;&gt;devops_fitnesse_tools_create_fitnesse_artifact_helpers_fitnesseArtifactChecks</title><style>.edge>path:hover{stroke-width:8}</style>
<path fill="none" stroke="black" d="M659.02,-657.67C659.07,-625.23 659.11,-570.39 658.96,-523.24"/>
<path fill="none" stroke="black" d="M658.96,-521.24C658.72,-444.65 623.19,-432.2 601.96,-358.61"/>
</g>
<!-- supporting_logging_customLogger&#45;&gt;devops_fitnesse_tools_create_fitnesse_artifact_helpers_fitnesseSettings -->
<g id="edge43" class="edge">
<title>supporting_logging_customLogger&#45;&gt;devops_fitnesse_tools_create_fitnesse_artifact_helpers_fitnesseSettings</title><style>.edge>path:hover{stroke-width:8}</style>
<path fill="none" stroke="black" d="M375.96,-442.81C365.49,-355.11 369.1,-251.72 372.59,-193.41"/>
<polygon fill="#068bef" stroke="black" points="376.09,-193.61 373.22,-183.41 369.1,-193.17 376.09,-193.61"/>
<path fill="none" stroke="black" d="M320.96,-599.67C300.02,-580.29 341.61,-570.04 351.96,-543.45 368.33,-501.41 382.86,-489.4 375.96,-444.81"/>
</g>
<!-- supporting_logging_customLogger&#45;&gt;supporting_deploylist -->
<g id="edge44" class="edge">
<title>supporting_logging_customLogger&#45;&gt;supporting_deploylist</title><style>.edge>path:hover{stroke-width:8}</style>
<path fill="none" stroke="black" d="M468.96,-599.67C459.58,-580.13 474.71,-560.58 491.73,-546.15"/>
<polygon fill="#068bef" stroke="black" points="493.95,-548.85 499.6,-539.89 489.59,-543.37 493.95,-548.85"/>
</g>
<!-- supporting_logging_customLogger&#45;&gt;supporting_generalSettings -->
<g id="edge45" class="edge">
<title>supporting_logging_customLogger&#45;&gt;supporting_generalSettings</title><style>.edge>path:hover{stroke-width:8}</style>
<path fill="none" stroke="black" d="M320.96,-599.67C292.27,-573.13 252.63,-553.61 221.03,-540.94"/>
<polygon fill="#068bef" stroke="black" points="222.09,-537.6 211.5,-537.23 219.55,-544.12 222.09,-537.6"/>
<path fill="none" stroke="black" d="M603.86,-684.86C537.36,-681.47 424.02,-668.59 339.96,-621.88 329.18,-615.89 330.01,-610.04 320.96,-601.67"/>
</g>
<!-- supporting_logging_customLogger&#45;&gt;supporting_generatezip -->
<g id="edge46" class="edge">
<title>supporting_logging_customLogger&#45;&gt;supporting_generatezip</title><style>.edge>path:hover{stroke-width:8}</style>
<path fill="none" stroke="black" d="M658.96,-521.24C658.9,-501.39 671.33,-483.28 684.5,-469.67"/>
<polygon fill="#068bef" stroke="black" points="687.06,-472.06 691.82,-462.59 682.2,-467.03 687.06,-472.06"/>
</g>
<!-- test -->
<g id="node20" class="node">
<title>test</title><style>.edge>path:hover{stroke-width:8}</style>
<ellipse fill="#6a47c2" stroke="black" cx="1337.96" cy="-600.67" rx="27" ry="18"/>
<text text-anchor="middle" x="1337.96" y="-598.17" font-family="Helvetica,sans-Serif" font-size="10.00" fill="#ffffff">test</text>
</g>
<!-- test&#45;&gt;devops_fitnesse_tools_test_run_all_tests -->
<g id="edge47" class="edge">
<title>test&#45;&gt;devops_fitnesse_tools_test_run_all_tests</title><style>.edge>path:hover{stroke-width:8}</style>
<path fill="none" stroke="black" d="M1333.16,-582.56C1330.18,-571.48 1326.46,-556.7 1323.96,-543.45 1314.44,-493.02 1307.51,-434.14 1303.61,-396.63"/>
<polygon fill="#6a47c2" stroke="black" points="1307.08,-396.23 1302.59,-386.64 1300.12,-396.94 1307.08,-396.23"/>
</g>
<!-- test&#45;&gt;devops_fitnesse_tools_test_test_walk -->
<g id="edge48" class="edge">
<title>test&#45;&gt;devops_fitnesse_tools_test_test_walk</title><style>.edge>path:hover{stroke-width:8}</style>
<path fill="none" stroke="black" d="M1335.03,-582.51C1333.01,-566.71 1331.69,-542.83 1337.96,-523.24"/>
</g>
<!-- unittest -->
<g id="node21" class="node">
<title>unittest</title><style>.edge>path:hover{stroke-width:8}</style>
<ellipse fill="#db2fc2" stroke="black" cx="1225.96" cy="-600.67" rx="28.69" ry="18"/>
<text text-anchor="middle" x="1225.96" y="-598.17" font-family="Helvetica,sans-Serif" font-size="10.00" fill="#ffffff">unittest</text>
</g>
<!-- unittest&#45;&gt;devops_fitnesse_tools_test_helpers_test_fitnesseSettings -->
<g id="edge49" class="edge">
<title>unittest&#45;&gt;devops_fitnesse_tools_test_helpers_test_fitnesseSettings</title><style>.edge>path:hover{stroke-width:8}</style>
<path fill="none" stroke="black" d="M1188.96,-442.81C1172.97,-397.29 1175.65,-341.54 1180.65,-303.02"/>
<polygon fill="#db2fc2" stroke="black" points="1184.18,-303.02 1182.11,-292.63 1177.25,-302.05 1184.18,-303.02"/>
</g>
<!-- unittest&#45;&gt;devops_fitnesse_tools_test_run_all_tests -->
<g id="edge50" class="edge">
<title>unittest&#45;&gt;devops_fitnesse_tools_test_run_all_tests</title><style>.edge>path:hover{stroke-width:8}</style>
<path fill="none" stroke="black" d="M1188.96,-442.81C1182.73,-415.61 1204.67,-395.82 1230.65,-382.29"/>
<polygon fill="#db2fc2" stroke="black" points="1232.5,-385.28 1239.97,-377.76 1229.45,-378.98 1232.5,-385.28"/>
</g>
<!-- unittest&#45;&gt;devops_fitnesse_tools_test_test_createFitNesseArtifact -->
<g id="edge51" class="edge">
<title>unittest&#45;&gt;devops_fitnesse_tools_test_test_createFitNesseArtifact</title><style>.edge>path:hover{stroke-width:8}</style>
<path fill="none" stroke="black" d="M1188.96,-442.81C1185.22,-426.47 1100.39,-399.27 1033.5,-380.22"/>
<polygon fill="#db2fc2" stroke="black" points="1034.35,-376.82 1023.78,-377.47 1032.45,-383.56 1034.35,-376.82"/>
<path fill="none" stroke="black" d="M1221.75,-582.5C1214.77,-553.97 1200.44,-494.93 1188.96,-444.81"/>
</g>
<!-- unittest&#45;&gt;devops_fitnesse_tools_test_test_walk -->
<g id="edge52" class="edge">
<title>unittest&#45;&gt;devops_fitnesse_tools_test_test_walk</title><style>.edge>path:hover{stroke-width:8}</style>
<path fill="none" stroke="black" d="M1251.77,-592.31C1280.9,-582.3 1325.82,-561.13 1337.96,-523.24"/>
<path fill="none" stroke="black" d="M1337.96,-521.24C1355.5,-466.48 1403.34,-419.41 1439.3,-390.21"/>
<polygon fill="#db2fc2" stroke="black" points="1441.59,-392.86 1447.24,-383.89 1437.24,-387.38 1441.59,-392.86"/>
</g>
<!-- unittest_mock -->
<g id="node22" class="node">
<title>unittest_mock</title><style>.edge>path:hover{stroke-width:8}</style>
<ellipse fill="#b653a8" stroke="black" cx="951.96" cy="-600.67" rx="44.98" ry="18"/>
<text text-anchor="middle" x="951.96" y="-598.17" font-family="Helvetica,sans-Serif" font-size="10.00" fill="#ffffff">unittest.mock</text>
</g>
<!-- unittest_mock&#45;&gt;devops_fitnesse_tools_test_test_createFitNesseArtifact -->
<g id="edge53" class="edge">
<title>unittest_mock&#45;&gt;devops_fitnesse_tools_test_test_createFitNesseArtifact</title><style>.edge>path:hover{stroke-width:8}</style>
<path fill="none" stroke="black" d="M946.12,-582.53C932.93,-543.67 902.15,-451.67 903.96,-444.81"/>
</g>
</g>
</svg>
