<?xml version="1.0" encoding="UTF-8" standalone="no"?>
<!DOCTYPE svg PUBLIC "-//W3C//DTD SVG 1.1//EN"
 "http://www.w3.org/Graphics/SVG/1.1/DTD/svg11.dtd">
<!-- Generated by graphviz version 2.44.0 (20200408.0750)
 -->
<!-- Title: G Pages: 1 -->
<svg width="956pt" height="603pt"
 viewBox="0.00 0.00 955.86 603.47" xmlns="http://www.w3.org/2000/svg" xmlns:xlink="http://www.w3.org/1999/xlink">
<g id="graph0" class="graph" transform="scale(1 1) rotate(0) translate(4 599.47)">
<title>G</title><style>.edge>path:hover{stroke-width:8}</style>
<polygon fill="white" stroke="transparent" points="-4,4 -4,-599.47 951.86,-599.47 951.86,4 -4,4"/>
<!-- argparse -->
<g id="node1" class="node">
<title>argparse</title><style>.edge>path:hover{stroke-width:8}</style>
<ellipse fill="#b65353" stroke="black" cx="322.99" cy="-465.26" rx="31.58" ry="18"/>
<text text-anchor="middle" x="322.99" y="-462.76" font-family="Helvetica,sans-Serif" font-size="10.00" fill="#ffffff">argparse</text>
</g>
<!-- devops_fitnesse_tools_create_fitnesse_artifact_createFitNesseArtifact -->
<g id="node2" class="node">
<title>devops_fitnesse_tools_create_fitnesse_artifact_createFitNesseArtifact</title><style>.edge>path:hover{stroke-width:8}</style>
<ellipse fill="#8b8b4b" stroke="black" cx="237.99" cy="-248.07" rx="86.03" ry="28.98"/>
<text text-anchor="middle" x="237.99" y="-256.57" font-family="Helvetica,sans-Serif" font-size="10.00" fill="#000000">devops_fitnesse_tools.</text>
<text text-anchor="middle" x="237.99" y="-245.57" font-family="Helvetica,sans-Serif" font-size="10.00" fill="#000000">create_fitnesse_artifact.</text>
<text text-anchor="middle" x="237.99" y="-234.57" font-family="Helvetica,sans-Serif" font-size="10.00" fill="#000000">createFitNesseArtifact</text>
</g>
<!-- argparse&#45;&gt;devops_fitnesse_tools_create_fitnesse_artifact_createFitNesseArtifact -->
<g id="edge1" class="edge">
<title>argparse&#45;&gt;devops_fitnesse_tools_create_fitnesse_artifact_createFitNesseArtifact</title><style>.edge>path:hover{stroke-width:8}</style>
<path fill="none" stroke="black" d="M307.88,-449.2C293.7,-433.34 274.8,-406.98 275.99,-380.05"/>
</g>
<!-- devops_fitnesse_tools_create_fitnesse_artifact_helpers_artifact -->
<g id="node3" class="node">
<title>devops_fitnesse_tools_create_fitnesse_artifact_helpers_artifact</title><style>.edge>path:hover{stroke-width:8}</style>
<ellipse fill="#777740" stroke="black" cx="497.99" cy="-36.77" rx="86.03" ry="36.54"/>
<text text-anchor="middle" x="497.99" y="-50.77" font-family="Helvetica,sans-Serif" font-size="10.00" fill="#ffffff">devops_fitnesse_tools.</text>
<text text-anchor="middle" x="497.99" y="-39.77" font-family="Helvetica,sans-Serif" font-size="10.00" fill="#ffffff">create_fitnesse_artifact.</text>
<text text-anchor="middle" x="497.99" y="-28.77" font-family="Helvetica,sans-Serif" font-size="10.00" fill="#ffffff">helpers.</text>
<text text-anchor="middle" x="497.99" y="-17.77" font-family="Helvetica,sans-Serif" font-size="10.00" fill="#ffffff">artifact</text>
</g>
<!-- devops_fitnesse_tools_create_fitnesse_artifact_helpers_fitnesseArtifactChecks -->
<g id="node4" class="node">
<title>devops_fitnesse_tools_create_fitnesse_artifact_helpers_fitnesseArtifactChecks</title><style>.edge>path:hover{stroke-width:8}</style>
<ellipse fill="#92924e" stroke="black" cx="611.99" cy="-146.31" rx="86.03" ry="36.54"/>
<text text-anchor="middle" x="611.99" y="-160.31" font-family="Helvetica,sans-Serif" font-size="10.00" fill="#000000">devops_fitnesse_tools.</text>
<text text-anchor="middle" x="611.99" y="-149.31" font-family="Helvetica,sans-Serif" font-size="10.00" fill="#000000">create_fitnesse_artifact.</text>
<text text-anchor="middle" x="611.99" y="-138.31" font-family="Helvetica,sans-Serif" font-size="10.00" fill="#000000">helpers.</text>
<text text-anchor="middle" x="611.99" y="-127.31" font-family="Helvetica,sans-Serif" font-size="10.00" fill="#000000">fitnesseArtifactChecks</text>
</g>
<!-- devops_fitnesse_tools_create_fitnesse_artifact_helpers_fitnesseSettings -->
<g id="node5" class="node">
<title>devops_fitnesse_tools_create_fitnesse_artifact_helpers_fitnesseSettings</title><style>.edge>path:hover{stroke-width:8}</style>
<ellipse fill="#999952" stroke="black" cx="123.99" cy="-146.31" rx="86.03" ry="36.54"/>
<text text-anchor="middle" x="123.99" y="-160.31" font-family="Helvetica,sans-Serif" font-size="10.00" fill="#000000">devops_fitnesse_tools.</text>
<text text-anchor="middle" x="123.99" y="-149.31" font-family="Helvetica,sans-Serif" font-size="10.00" fill="#000000">create_fitnesse_artifact.</text>
<text text-anchor="middle" x="123.99" y="-138.31" font-family="Helvetica,sans-Serif" font-size="10.00" fill="#000000">helpers.</text>
<text text-anchor="middle" x="123.99" y="-127.31" font-family="Helvetica,sans-Serif" font-size="10.00" fill="#000000">fitnesseSettings</text>
</g>
<!-- devops_fitnesse_tools_test_test_createFitNesseArtifact -->
<g id="node6" class="node">
<title>devops_fitnesse_tools_test_test_createFitNesseArtifact</title><style>.edge>path:hover{stroke-width:8}</style>
<ellipse fill="#a6a659" stroke="black" cx="850.99" cy="-379.05" rx="96.75" ry="28.98"/>
<text text-anchor="middle" x="850.99" y="-387.55" font-family="Helvetica,sans-Serif" font-size="10.00" fill="#000000">devops_fitnesse_tools.</text>
<text text-anchor="middle" x="850.99" y="-376.55" font-family="Helvetica,sans-Serif" font-size="10.00" fill="#000000">test.</text>
<text text-anchor="middle" x="850.99" y="-365.55" font-family="Helvetica,sans-Serif" font-size="10.00" fill="#000000">test_createFitNesseArtifact</text>
</g>
<!-- logging -->
<g id="node7" class="node">
<title>logging</title><style>.edge>path:hover{stroke-width:8}</style>
<ellipse fill="#10f910" stroke="black" cx="456.99" cy="-577.47" rx="27.84" ry="18"/>
<text text-anchor="middle" x="456.99" y="-574.97" font-family="Helvetica,sans-Serif" font-size="10.00" fill="#000000">logging</text>
</g>
<!-- logging&#45;&gt;devops_fitnesse_tools_create_fitnesse_artifact_createFitNesseArtifact -->
<g id="edge2" class="edge">
<title>logging&#45;&gt;devops_fitnesse_tools_create_fitnesse_artifact_createFitNesseArtifact</title><style>.edge>path:hover{stroke-width:8}</style>
<path fill="none" stroke="black" d="M275.99,-378.05C277.29,-348.41 315.88,-335.13 294.99,-314.06"/>
<path fill="none" stroke="black" d="M294.99,-313.06C285.81,-303.81 276.24,-293.4 267.62,-283.7"/>
<polygon fill="#10f910" stroke="black" points="270.17,-281.31 260.94,-276.12 264.92,-285.93 270.17,-281.31"/>
<path fill="none" stroke="black" d="M456.99,-522.47C456.89,-443.06 333.87,-546.58 281.99,-486.47 251.03,-450.61 273.91,-427.38 275.99,-380.05"/>
</g>
<!-- logging&#45;&gt;devops_fitnesse_tools_create_fitnesse_artifact_helpers_artifact -->
<g id="edge3" class="edge">
<title>logging&#45;&gt;devops_fitnesse_tools_create_fitnesse_artifact_helpers_artifact</title><style>.edge>path:hover{stroke-width:8}</style>
<path fill="none" stroke="black" d="M725.99,-378.05C722.31,-349.85 719.66,-341.79 725.99,-314.06"/>
</g>
<!-- logging&#45;&gt;devops_fitnesse_tools_create_fitnesse_artifact_helpers_fitnesseArtifactChecks -->
<g id="edge4" class="edge">
<title>logging&#45;&gt;devops_fitnesse_tools_create_fitnesse_artifact_helpers_fitnesseArtifactChecks</title><style>.edge>path:hover{stroke-width:8}</style>
<path fill="none" stroke="black" d="M725.99,-378.05C720.38,-345.45 691.22,-346.98 687.99,-314.06"/>
<path fill="none" stroke="black" d="M456.99,-522.47C457.69,-465.25 671.71,-527.13 711.99,-486.47 745.56,-452.58 734.06,-427.07 725.99,-380.05"/>
</g>
<!-- logging&#45;&gt;devops_fitnesse_tools_create_fitnesse_artifact_helpers_fitnesseSettings -->
<g id="edge5" class="edge">
<title>logging&#45;&gt;devops_fitnesse_tools_create_fitnesse_artifact_helpers_fitnesseSettings</title><style>.edge>path:hover{stroke-width:8}</style>
<path fill="none" stroke="black" d="M382.99,-464.26C378.05,-457.51 335.96,-415.86 332.99,-408.04 303.13,-329.55 381.78,-287.43 332.99,-219.08 306.88,-182.51 260.92,-164.38 218.74,-155.47"/>
<polygon fill="#10f910" stroke="black" points="219.16,-151.99 208.67,-153.5 217.82,-158.86 219.16,-151.99"/>
<path fill="none" stroke="black" d="M456.99,-522.47C457.09,-493.26 424.37,-505.25 401.99,-486.47 392.54,-478.55 389.84,-476.5 382.99,-466.26"/>
</g>
<!-- supporting -->
<g id="node9" class="node">
<title>supporting</title><style>.edge>path:hover{stroke-width:8}</style>
<ellipse fill="#0606ef" stroke="black" cx="666.99" cy="-465.26" rx="36.49" ry="18"/>
<text text-anchor="middle" x="666.99" y="-462.76" font-family="Helvetica,sans-Serif" font-size="10.00" fill="#ffffff">supporting</text>
</g>
<!-- logging&#45;&gt;supporting -->
<g id="edge6" class="edge">
<title>logging&#45;&gt;supporting</title><style>.edge>path:hover{stroke-width:8}</style>
<path fill="none" stroke="black" d="M456.99,-522.47C457.4,-484.94 586.34,-498.22 621.99,-486.47 625.53,-485.3 629.17,-483.95 632.77,-482.5"/>
<polygon fill="#10f910" stroke="black" points="634.29,-485.66 642.12,-478.53 631.55,-479.22 634.29,-485.66"/>
</g>
<!-- supporting_deploylist -->
<g id="node10" class="node">
<title>supporting_deploylist</title><style>.edge>path:hover{stroke-width:8}</style>
<ellipse fill="#4646a4" stroke="black" cx="387.99" cy="-379.05" rx="45.92" ry="21.43"/>
<text text-anchor="middle" x="387.99" y="-382.05" font-family="Helvetica,sans-Serif" font-size="10.00" fill="#ffffff">supporting.</text>
<text text-anchor="middle" x="387.99" y="-371.05" font-family="Helvetica,sans-Serif" font-size="10.00" fill="#ffffff">deploylist</text>
</g>
<!-- logging&#45;&gt;supporting_deploylist -->
<g id="edge7" class="edge">
<title>logging&#45;&gt;supporting_deploylist</title><style>.edge>path:hover{stroke-width:8}</style>
<path fill="none" stroke="black" d="M382.99,-464.26C371.7,-448.85 373.21,-427.29 377.41,-409.84"/>
<polygon fill="#10f910" stroke="black" points="380.81,-410.69 380.11,-400.12 374.06,-408.82 380.81,-410.69"/>
</g>
<!-- supporting_errorcodes -->
<g id="node11" class="node">
<title>supporting_errorcodes</title><style>.edge>path:hover{stroke-width:8}</style>
<ellipse fill="#1818dd" stroke="black" cx="456.99" cy="-465.26" rx="45.92" ry="21.43"/>
<text text-anchor="middle" x="456.99" y="-468.26" font-family="Helvetica,sans-Serif" font-size="10.00" fill="#ffffff">supporting.</text>
<text text-anchor="middle" x="456.99" y="-457.26" font-family="Helvetica,sans-Serif" font-size="10.00" fill="#ffffff">errorcodes</text>
</g>
<!-- logging&#45;&gt;supporting_errorcodes -->
<g id="edge8" class="edge">
<title>logging&#45;&gt;supporting_errorcodes</title><style>.edge>path:hover{stroke-width:8}</style>
<path fill="none" stroke="black" d="M456.99,-522.47C457.08,-514.1 457.11,-505.03 457.11,-496.66"/>
<polygon fill="#10f910" stroke="black" points="460.61,-496.55 457.09,-486.55 453.61,-496.56 460.61,-496.55"/>
</g>
<!-- supporting_generalSettings -->
<g id="node13" class="node">
<title>supporting_generalSettings</title><style>.edge>path:hover{stroke-width:8}</style>
<ellipse fill="#2424d0" stroke="black" cx="175.99" cy="-465.26" rx="59.29" ry="21.43"/>
<text text-anchor="middle" x="175.99" y="-468.26" font-family="Helvetica,sans-Serif" font-size="10.00" fill="#ffffff">supporting.</text>
<text text-anchor="middle" x="175.99" y="-457.26" font-family="Helvetica,sans-Serif" font-size="10.00" fill="#ffffff">generalSettings</text>
</g>
<!-- logging&#45;&gt;supporting_generalSettings -->
<g id="edge9" class="edge">
<title>logging&#45;&gt;supporting_generalSettings</title><style>.edge>path:hover{stroke-width:8}</style>
<path fill="none" stroke="black" d="M456.89,-559.28C456.85,-548.91 456.85,-535.43 456.99,-523.47"/>
<path fill="none" stroke="black" d="M456.99,-522.47C457.51,-475.56 294.76,-496.74 248.99,-486.47 242.92,-485.11 236.61,-483.56 230.35,-481.94"/>
<polygon fill="#10f910" stroke="black" points="231.15,-478.54 220.59,-479.36 229.36,-485.3 231.15,-478.54"/>
</g>
<!-- supporting_generatezip -->
<g id="node14" class="node">
<title>supporting_generatezip</title><style>.edge>path:hover{stroke-width:8}</style>
<ellipse fill="#4646a4" stroke="black" cx="536.99" cy="-379.05" rx="47.25" ry="21.43"/>
<text text-anchor="middle" x="536.99" y="-382.05" font-family="Helvetica,sans-Serif" font-size="10.00" fill="#ffffff">supporting.</text>
<text text-anchor="middle" x="536.99" y="-371.05" font-family="Helvetica,sans-Serif" font-size="10.00" fill="#ffffff">generatezip</text>
</g>
<!-- logging&#45;&gt;supporting_generatezip -->
<g id="edge10" class="edge">
<title>logging&#45;&gt;supporting_generatezip</title><style>.edge>path:hover{stroke-width:8}</style>
<path fill="none" stroke="black" d="M456.99,-522.47C457.31,-493.26 495.23,-510.4 511.99,-486.47 527.68,-464.06 533.63,-433.14 535.83,-410.4"/>
<polygon fill="#10f910" stroke="black" points="539.33,-410.52 536.61,-400.28 532.35,-409.98 539.33,-410.52"/>
</g>
<!-- pathlib -->
<g id="node8" class="node">
<title>pathlib</title><style>.edge>path:hover{stroke-width:8}</style>
<ellipse fill="#47c2c2" stroke="black" cx="585.99" cy="-465.26" rx="27" ry="18"/>
<text text-anchor="middle" x="585.99" y="-462.76" font-family="Helvetica,sans-Serif" font-size="10.00" fill="#000000">pathlib</text>
</g>
<!-- pathlib&#45;&gt;devops_fitnesse_tools_create_fitnesse_artifact_helpers_artifact -->
<g id="edge11" class="edge">
<title>pathlib&#45;&gt;devops_fitnesse_tools_create_fitnesse_artifact_helpers_artifact</title><style>.edge>path:hover{stroke-width:8}</style>
<path fill="none" stroke="black" d="M601.47,-450.24C617.21,-434.84 640.59,-408.47 649.99,-380.05"/>
<path fill="none" stroke="black" d="M649.99,-378.05C666.45,-328.26 544.11,-227.97 516.99,-183.08 507.68,-167.67 503.27,-164.52 497.99,-147.31"/>
</g>
<!-- pathlib&#45;&gt;devops_fitnesse_tools_create_fitnesse_artifact_helpers_fitnesseArtifactChecks -->
<g id="edge12" class="edge">
<title>pathlib&#45;&gt;devops_fitnesse_tools_create_fitnesse_artifact_helpers_fitnesseArtifactChecks</title><style>.edge>path:hover{stroke-width:8}</style>
<path fill="none" stroke="black" d="M687.99,-313.06C687.99,-269.95 682.29,-258.11 663.99,-219.08 659.23,-208.95 652.98,-198.78 646.47,-189.41"/>
<polygon fill="#47c2c2" stroke="black" points="649.14,-187.13 640.45,-181.06 643.46,-191.22 649.14,-187.13"/>
<path fill="none" stroke="black" d="M649.99,-378.05C660.37,-346.65 691.22,-346.98 687.99,-314.06"/>
</g>
<!-- supporting&#45;&gt;devops_fitnesse_tools_create_fitnesse_artifact_createFitNesseArtifact -->
<g id="edge13" class="edge">
<title>supporting&#45;&gt;devops_fitnesse_tools_create_fitnesse_artifact_createFitNesseArtifact</title><style>.edge>path:hover{stroke-width:8}</style>
<path fill="none" stroke="black" d="M687.99,-378.05C691.93,-345.21 676.03,-334.45 649.99,-314.06"/>
<path fill="none" stroke="black" d="M649.99,-313.06C602.08,-275.57 439.48,-259.72 333.45,-253.26"/>
<polygon fill="#0606ef" stroke="black" points="333.56,-249.76 323.37,-252.66 333.14,-256.75 333.56,-249.76"/>
<path fill="none" stroke="black" d="M672.52,-447.4C677.72,-430.56 685.13,-403.84 687.99,-380.05"/>
</g>
<!-- supporting&#45;&gt;devops_fitnesse_tools_create_fitnesse_artifact_helpers_artifact -->
<g id="edge14" class="edge">
<title>supporting&#45;&gt;devops_fitnesse_tools_create_fitnesse_artifact_helpers_artifact</title><style>.edge>path:hover{stroke-width:8}</style>
<path fill="none" stroke="black" d="M687.99,-378.05C691.93,-345.21 721.33,-346.81 725.99,-314.06"/>
<path fill="none" stroke="black" d="M725.99,-313.06C738.77,-223.12 763.15,-180.94 706.99,-109.54 679.37,-74.44 633.65,-56.42 592,-47.2"/>
<polygon fill="#0606ef" stroke="black" points="592.58,-43.75 582.08,-45.15 591.16,-50.6 592.58,-43.75"/>
</g>
<!-- supporting&#45;&gt;devops_fitnesse_tools_create_fitnesse_artifact_helpers_fitnesseArtifactChecks -->
<g id="edge15" class="edge">
<title>supporting&#45;&gt;devops_fitnesse_tools_create_fitnesse_artifact_helpers_fitnesseArtifactChecks</title><style>.edge>path:hover{stroke-width:8}</style>
<path fill="none" stroke="black" d="M687.99,-378.05C691.38,-349.81 690.77,-342.37 687.99,-314.06"/>
</g>
<!-- supporting&#45;&gt;devops_fitnesse_tools_create_fitnesse_artifact_helpers_fitnesseSettings -->
<g id="edge16" class="edge">
<title>supporting&#45;&gt;devops_fitnesse_tools_create_fitnesse_artifact_helpers_fitnesseSettings</title><style>.edge>path:hover{stroke-width:8}</style>
<path fill="none" stroke="black" d="M649.99,-313.06C521.54,-212.52 331.11,-172.39 218.08,-156.79"/>
<polygon fill="#0606ef" stroke="black" points="218.43,-153.31 208.06,-155.45 217.5,-160.25 218.43,-153.31"/>
</g>
<!-- supporting_deploylist&#45;&gt;devops_fitnesse_tools_create_fitnesse_artifact_helpers_artifact -->
<g id="edge17" class="edge">
<title>supporting_deploylist&#45;&gt;devops_fitnesse_tools_create_fitnesse_artifact_helpers_artifact</title><style>.edge>path:hover{stroke-width:8}</style>
<path fill="none" stroke="black" d="M497.99,-145.31C492.13,-125.75 491.27,-103.28 492.22,-83.96"/>
<polygon fill="#4646a4" stroke="black" points="495.72,-84.08 492.88,-73.88 488.73,-83.62 495.72,-84.08"/>
<path fill="none" stroke="black" d="M461.99,-313.06C471.87,-238.33 519.62,-219.52 497.99,-147.31"/>
<path fill="none" stroke="black" d="M419.92,-363.61C438.27,-353.01 458.37,-336.53 461.99,-314.06"/>
</g>
<!-- supporting_errorcodes&#45;&gt;devops_fitnesse_tools_create_fitnesse_artifact_createFitNesseArtifact -->
<g id="edge18" class="edge">
<title>supporting_errorcodes&#45;&gt;devops_fitnesse_tools_create_fitnesse_artifact_createFitNesseArtifact</title><style>.edge>path:hover{stroke-width:8}</style>
<path fill="none" stroke="black" d="M461.99,-378.05C455.8,-364.35 455.34,-358.63 442.99,-350.06 387.36,-311.47 342.65,-362.13 294.99,-314.06"/>
<path fill="none" stroke="black" d="M463.32,-443.9C467.66,-426.22 471.14,-400.34 461.99,-380.05"/>
</g>
<!-- supporting_errorcodes&#45;&gt;devops_fitnesse_tools_create_fitnesse_artifact_helpers_artifact -->
<g id="edge19" class="edge">
<title>supporting_errorcodes&#45;&gt;devops_fitnesse_tools_create_fitnesse_artifact_helpers_artifact</title><style>.edge>path:hover{stroke-width:8}</style>
<path fill="none" stroke="black" d="M461.99,-378.05C450.29,-352.13 457.47,-342.14 461.99,-314.06"/>
</g>
<!-- supporting_errorcodes&#45;&gt;devops_fitnesse_tools_create_fitnesse_artifact_helpers_fitnesseArtifactChecks -->
<g id="edge20" class="edge">
<title>supporting_errorcodes&#45;&gt;devops_fitnesse_tools_create_fitnesse_artifact_helpers_fitnesseArtifactChecks</title><style>.edge>path:hover{stroke-width:8}</style>
<path fill="none" stroke="black" d="M500.58,-458.38C531.66,-451.72 571.59,-437.65 592.99,-408.04 638.53,-345.02 631.62,-249.56 622.07,-193.32"/>
<polygon fill="#1818dd" stroke="black" points="625.48,-192.51 620.27,-183.29 618.59,-193.75 625.48,-192.51"/>
</g>
<!-- supporting_errorcodes&#45;&gt;supporting_deploylist -->
<g id="edge21" class="edge">
<title>supporting_errorcodes&#45;&gt;supporting_deploylist</title><style>.edge>path:hover{stroke-width:8}</style>
<path fill="none" stroke="black" d="M441.33,-445.15C432.06,-433.85 420.19,-419.35 409.99,-406.91"/>
<polygon fill="#1818dd" stroke="black" points="412.63,-404.6 403.58,-399.08 407.21,-409.04 412.63,-404.6"/>
</g>
<!-- supporting_errorcodes&#45;&gt;supporting_generatezip -->
<g id="edge22" class="edge">
<title>supporting_errorcodes&#45;&gt;supporting_generatezip</title><style>.edge>path:hover{stroke-width:8}</style>
<path fill="none" stroke="black" d="M474.74,-445.57C485.64,-434.09 499.78,-419.22 511.82,-406.54"/>
<polygon fill="#1818dd" stroke="black" points="514.65,-408.64 519,-398.98 509.58,-403.82 514.65,-408.64"/>
</g>
<!-- supporting_filehandling -->
<g id="node12" class="node">
<title>supporting_filehandling</title><style>.edge>path:hover{stroke-width:8}</style>
<ellipse fill="#4949ac" stroke="black" cx="86.99" cy="-379.05" rx="45.92" ry="21.43"/>
<text text-anchor="middle" x="86.99" y="-382.05" font-family="Helvetica,sans-Serif" font-size="10.00" fill="#ffffff">supporting.</text>
<text text-anchor="middle" x="86.99" y="-371.05" font-family="Helvetica,sans-Serif" font-size="10.00" fill="#ffffff">filehandling</text>
</g>
<!-- supporting_filehandling&#45;&gt;devops_fitnesse_tools_create_fitnesse_artifact_helpers_artifact -->
<g id="edge23" class="edge">
<title>supporting_filehandling&#45;&gt;devops_fitnesse_tools_create_fitnesse_artifact_helpers_artifact</title><style>.edge>path:hover{stroke-width:8}</style>
<path fill="none" stroke="black" d="M9.99,-145.31C17.32,-128.87 14.31,-119.96 28.99,-109.54 87.32,-68.14 282.39,-49.88 401.8,-42.42"/>
<polygon fill="#4949ac" stroke="black" points="402.27,-45.89 412.04,-41.79 401.85,-38.91 402.27,-45.89"/>
<path fill="none" stroke="black" d="M71.2,-359.04C39.96,-318.97 -23.92,-223.28 9.99,-147.31"/>
</g>
<!-- supporting_generalSettings&#45;&gt;devops_fitnesse_tools_create_fitnesse_artifact_createFitNesseArtifact -->
<g id="edge24" class="edge">
<title>supporting_generalSettings&#45;&gt;devops_fitnesse_tools_create_fitnesse_artifact_createFitNesseArtifact</title><style>.edge>path:hover{stroke-width:8}</style>
<path fill="none" stroke="black" d="M237.99,-313.06C235,-305.07 233.8,-296.12 233.59,-287.5"/>
<polygon fill="#2424d0" stroke="black" points="237.09,-287.3 233.77,-277.24 230.09,-287.17 237.09,-287.3"/>
</g>
<!-- supporting_generalSettings&#45;&gt;devops_fitnesse_tools_create_fitnesse_artifact_helpers_artifact -->
<g id="edge25" class="edge">
<title>supporting_generalSettings&#45;&gt;devops_fitnesse_tools_create_fitnesse_artifact_helpers_artifact</title><style>.edge>path:hover{stroke-width:8}</style>
<path fill="none" stroke="black" d="M237.99,-313.06C222.16,-270.77 178.42,-305.04 142.99,-277.06 131.18,-267.74 134.56,-259.76 123.99,-249.07"/>
<path fill="none" stroke="black" d="M123.99,-247.07C76.64,-199.2 -17.22,-208.89 9.99,-147.31"/>
<path fill="none" stroke="black" d="M193.84,-444.98C217.9,-416.55 255.78,-361.62 237.99,-314.06"/>
</g>
<!-- supporting_generalSettings&#45;&gt;devops_fitnesse_tools_create_fitnesse_artifact_helpers_fitnesseSettings -->
<g id="edge26" class="edge">
<title>supporting_generalSettings&#45;&gt;devops_fitnesse_tools_create_fitnesse_artifact_helpers_fitnesseSettings</title><style>.edge>path:hover{stroke-width:8}</style>
<path fill="none" stroke="black" d="M123.99,-247.07C110.25,-233.19 108.62,-212.19 111.08,-193.03"/>
<polygon fill="#2424d0" stroke="black" points="114.58,-193.37 112.77,-182.93 107.67,-192.22 114.58,-193.37"/>
</g>
<!-- supporting_generalSettings&#45;&gt;supporting_filehandling -->
<g id="edge27" class="edge">
<title>supporting_generalSettings&#45;&gt;supporting_filehandling</title><style>.edge>path:hover{stroke-width:8}</style>
<path fill="none" stroke="black" d="M155.79,-445.15C143.44,-433.47 127.49,-418.38 114.06,-405.67"/>
<polygon fill="#2424d0" stroke="black" points="116.16,-402.84 106.49,-398.51 111.35,-407.92 116.16,-402.84"/>
</g>
<!-- supporting_generatezip&#45;&gt;devops_fitnesse_tools_create_fitnesse_artifact_helpers_artifact -->
<g id="edge28" class="edge">
<title>supporting_generatezip&#45;&gt;devops_fitnesse_tools_create_fitnesse_artifact_helpers_artifact</title><style>.edge>path:hover{stroke-width:8}</style>
<path fill="none" stroke="black" d="M501.9,-364.72C480.92,-354.24 458.89,-337.48 461.99,-314.06"/>
</g>
<!-- unittest -->
<g id="node15" class="node">
<title>unittest</title><style>.edge>path:hover{stroke-width:8}</style>
<ellipse fill="#b653b6" stroke="black" cx="850.99" cy="-577.47" rx="28.69" ry="18"/>
<text text-anchor="middle" x="850.99" y="-574.97" font-family="Helvetica,sans-Serif" font-size="10.00" fill="#ffffff">unittest</text>
</g>
<!-- unittest&#45;&gt;devops_fitnesse_tools_test_test_createFitNesseArtifact -->
<g id="edge29" class="edge">
<title>unittest&#45;&gt;devops_fitnesse_tools_test_test_createFitNesseArtifact</title><style>.edge>path:hover{stroke-width:8}</style>
<path fill="none" stroke="black" d="M850.99,-559.38C850.99,-528.08 850.99,-460.85 850.99,-418.19"/>
<polygon fill="#b653b6" stroke="black" points="854.49,-418.17 850.99,-408.17 847.49,-418.17 854.49,-418.17"/>
</g>
</g>
</svg>
