<?xml version="1.0" encoding="UTF-8" standalone="no"?>
<!DOCTYPE svg PUBLIC "-//W3C//DTD SVG 1.1//EN"
 "http://www.w3.org/Graphics/SVG/1.1/DTD/svg11.dtd">
<!-- Generated by graphviz version 2.44.0 (20200408.0750)
 -->
<!-- Title: G Pages: 1 -->
<svg width="1046pt" height="623pt"
 viewBox="0.00 0.00 1046.44 622.91" xmlns="http://www.w3.org/2000/svg" xmlns:xlink="http://www.w3.org/1999/xlink">
<g id="graph0" class="graph" transform="scale(1 1) rotate(0) translate(4 618.91)">
<title>G</title><style>.edge>path:hover{stroke-width:8}</style>
<polygon fill="white" stroke="transparent" points="-4,4 -4,-618.91 1042.44,-618.91 1042.44,4 -4,4"/>
<!-- argparse -->
<g id="node1" class="node">
<title>argparse</title><style>.edge>path:hover{stroke-width:8}</style>
<ellipse fill="#b65353" stroke="black" cx="327.96" cy="-449.7" rx="31.58" ry="18"/>
<text text-anchor="middle" x="327.96" y="-447.2" font-family="Helvetica,sans-Serif" font-size="10.00" fill="#ffffff">argparse</text>
</g>
<!-- devops_fitnesse_tools_create_fitnesse_artifact_createFitNesseArtifact -->
<g id="node2" class="node">
<title>devops_fitnesse_tools_create_fitnesse_artifact_createFitNesseArtifact</title><style>.edge>path:hover{stroke-width:8}</style>
<ellipse fill="#8b8b4b" stroke="black" cx="233.96" cy="-248.07" rx="86.03" ry="28.98"/>
<text text-anchor="middle" x="233.96" y="-256.57" font-family="Helvetica,sans-Serif" font-size="10.00" fill="#000000">devops_fitnesse_tools.</text>
<text text-anchor="middle" x="233.96" y="-245.57" font-family="Helvetica,sans-Serif" font-size="10.00" fill="#000000">create_fitnesse_artifact.</text>
<text text-anchor="middle" x="233.96" y="-234.57" font-family="Helvetica,sans-Serif" font-size="10.00" fill="#000000">createFitNesseArtifact</text>
</g>
<!-- argparse&#45;&gt;devops_fitnesse_tools_create_fitnesse_artifact_createFitNesseArtifact -->
<g id="edge1" class="edge">
<title>argparse&#45;&gt;devops_fitnesse_tools_create_fitnesse_artifact_createFitNesseArtifact</title><style>.edge>path:hover{stroke-width:8}</style>
<path fill="none" stroke="black" d="M321.89,-431.95C312.14,-405.9 291.66,-354.45 267.96,-314.06"/>
</g>
<!-- devops_fitnesse_tools_create_fitnesse_artifact_helpers_artifact -->
<g id="node3" class="node">
<title>devops_fitnesse_tools_create_fitnesse_artifact_helpers_artifact</title><style>.edge>path:hover{stroke-width:8}</style>
<ellipse fill="#777740" stroke="black" cx="614.96" cy="-36.77" rx="86.03" ry="36.54"/>
<text text-anchor="middle" x="614.96" y="-50.77" font-family="Helvetica,sans-Serif" font-size="10.00" fill="#ffffff">devops_fitnesse_tools.</text>
<text text-anchor="middle" x="614.96" y="-39.77" font-family="Helvetica,sans-Serif" font-size="10.00" fill="#ffffff">create_fitnesse_artifact.</text>
<text text-anchor="middle" x="614.96" y="-28.77" font-family="Helvetica,sans-Serif" font-size="10.00" fill="#ffffff">helpers.</text>
<text text-anchor="middle" x="614.96" y="-17.77" font-family="Helvetica,sans-Serif" font-size="10.00" fill="#ffffff">artifact</text>
</g>
<!-- devops_fitnesse_tools_create_fitnesse_artifact_helpers_fitnesseArtifactChecks -->
<g id="node4" class="node">
<title>devops_fitnesse_tools_create_fitnesse_artifact_helpers_fitnesseArtifactChecks</title><style>.edge>path:hover{stroke-width:8}</style>
<ellipse fill="#92924e" stroke="black" cx="500.96" cy="-146.31" rx="86.03" ry="36.54"/>
<text text-anchor="middle" x="500.96" y="-160.31" font-family="Helvetica,sans-Serif" font-size="10.00" fill="#000000">devops_fitnesse_tools.</text>
<text text-anchor="middle" x="500.96" y="-149.31" font-family="Helvetica,sans-Serif" font-size="10.00" fill="#000000">create_fitnesse_artifact.</text>
<text text-anchor="middle" x="500.96" y="-138.31" font-family="Helvetica,sans-Serif" font-size="10.00" fill="#000000">helpers.</text>
<text text-anchor="middle" x="500.96" y="-127.31" font-family="Helvetica,sans-Serif" font-size="10.00" fill="#000000">fitnesseArtifactChecks</text>
</g>
<!-- devops_fitnesse_tools_create_fitnesse_artifact_helpers_fitnesseSettings -->
<g id="node5" class="node">
<title>devops_fitnesse_tools_create_fitnesse_artifact_helpers_fitnesseSettings</title><style>.edge>path:hover{stroke-width:8}</style>
<ellipse fill="#999952" stroke="black" cx="309.96" cy="-146.31" rx="86.03" ry="36.54"/>
<text text-anchor="middle" x="309.96" y="-160.31" font-family="Helvetica,sans-Serif" font-size="10.00" fill="#000000">devops_fitnesse_tools.</text>
<text text-anchor="middle" x="309.96" y="-149.31" font-family="Helvetica,sans-Serif" font-size="10.00" fill="#000000">create_fitnesse_artifact.</text>
<text text-anchor="middle" x="309.96" y="-138.31" font-family="Helvetica,sans-Serif" font-size="10.00" fill="#000000">helpers.</text>
<text text-anchor="middle" x="309.96" y="-127.31" font-family="Helvetica,sans-Serif" font-size="10.00" fill="#000000">fitnesseSettings</text>
</g>
<!-- devops_fitnesse_tools_test_helpers_test_fitnesseSettings -->
<g id="node6" class="node">
<title>devops_fitnesse_tools_test_helpers_test_fitnesseSettings</title><style>.edge>path:hover{stroke-width:8}</style>
<ellipse fill="#a6a659" stroke="black" cx="847.96" cy="-146.31" rx="82.96" ry="36.54"/>
<text text-anchor="middle" x="847.96" y="-160.31" font-family="Helvetica,sans-Serif" font-size="10.00" fill="#000000">devops_fitnesse_tools.</text>
<text text-anchor="middle" x="847.96" y="-149.31" font-family="Helvetica,sans-Serif" font-size="10.00" fill="#000000">test.</text>
<text text-anchor="middle" x="847.96" y="-138.31" font-family="Helvetica,sans-Serif" font-size="10.00" fill="#000000">helpers.</text>
<text text-anchor="middle" x="847.96" y="-127.31" font-family="Helvetica,sans-Serif" font-size="10.00" fill="#000000">test_fitnesseSettings</text>
</g>
<!-- devops_fitnesse_tools_test_test_createFitNesseArtifact -->
<g id="node7" class="node">
<title>devops_fitnesse_tools_test_test_createFitNesseArtifact</title><style>.edge>path:hover{stroke-width:8}</style>
<ellipse fill="#8b8b4b" stroke="black" cx="722.96" cy="-248.07" rx="96.75" ry="28.98"/>
<text text-anchor="middle" x="722.96" y="-256.57" font-family="Helvetica,sans-Serif" font-size="10.00" fill="#000000">devops_fitnesse_tools.</text>
<text text-anchor="middle" x="722.96" y="-245.57" font-family="Helvetica,sans-Serif" font-size="10.00" fill="#000000">test.</text>
<text text-anchor="middle" x="722.96" y="-234.57" font-family="Helvetica,sans-Serif" font-size="10.00" fill="#000000">test_createFitNesseArtifact</text>
</g>
<!-- logging -->
<g id="node8" class="node">
<title>logging</title><style>.edge>path:hover{stroke-width:8}</style>
<ellipse fill="#10f910" stroke="black" cx="724.96" cy="-596.91" rx="27.84" ry="18"/>
<text text-anchor="middle" x="724.96" y="-594.41" font-family="Helvetica,sans-Serif" font-size="10.00" fill="#000000">logging</text>
</g>
<!-- logging&#45;&gt;devops_fitnesse_tools_create_fitnesse_artifact_createFitNesseArtifact -->
<g id="edge2" class="edge">
<title>logging&#45;&gt;devops_fitnesse_tools_create_fitnesse_artifact_createFitNesseArtifact</title><style>.edge>path:hover{stroke-width:8}</style>
<path fill="none" stroke="black" d="M267.96,-313.06C264.49,-303.89 259.97,-294.38 255.38,-285.58"/>
<polygon fill="#10f910" stroke="black" points="258.43,-283.85 250.61,-276.71 252.26,-287.17 258.43,-283.85"/>
<path fill="none" stroke="black" d="M267.96,-448.7C224.79,-407.26 289.18,-370.01 267.96,-314.06"/>
</g>
<!-- logging&#45;&gt;devops_fitnesse_tools_create_fitnesse_artifact_helpers_artifact -->
<g id="edge3" class="edge">
<title>logging&#45;&gt;devops_fitnesse_tools_create_fitnesse_artifact_helpers_artifact</title><style>.edge>path:hover{stroke-width:8}</style>
<path fill="none" stroke="black" d="M1035.96,-448.7C1032.9,-404.16 1041.98,-387.04 1016.96,-350.06 1000.38,-325.56 960.8,-343.65 960.96,-314.06"/>
</g>
<!-- logging&#45;&gt;devops_fitnesse_tools_create_fitnesse_artifact_helpers_fitnesseArtifactChecks -->
<g id="edge4" class="edge">
<title>logging&#45;&gt;devops_fitnesse_tools_create_fitnesse_artifact_helpers_fitnesseArtifactChecks</title><style>.edge>path:hover{stroke-width:8}</style>
<path fill="none" stroke="black" d="M551.96,-370.27C551.96,-315.88 530.23,-303.26 534.96,-249.07"/>
<path fill="none" stroke="black" d="M477.96,-448.7C496.03,-405.01 555.62,-419.41 551.96,-372.27"/>
</g>
<!-- logging&#45;&gt;devops_fitnesse_tools_create_fitnesse_artifact_helpers_fitnesseSettings -->
<g id="edge5" class="edge">
<title>logging&#45;&gt;devops_fitnesse_tools_create_fitnesse_artifact_helpers_fitnesseSettings</title><style>.edge>path:hover{stroke-width:8}</style>
<path fill="none" stroke="black" d="M477.96,-448.7C515.29,-358.42 411.78,-343.29 385.96,-249.07"/>
<path fill="none" stroke="black" d="M445.96,-523.91C415.23,-506.11 464.12,-483.41 477.96,-450.7"/>
</g>
<!-- supporting -->
<g id="node10" class="node">
<title>supporting</title><style>.edge>path:hover{stroke-width:8}</style>
<ellipse fill="#0606ef" stroke="black" cx="413.96" cy="-449.7" rx="36.49" ry="18"/>
<text text-anchor="middle" x="413.96" y="-447.2" font-family="Helvetica,sans-Serif" font-size="10.00" fill="#ffffff">supporting</text>
</g>
<!-- logging&#45;&gt;supporting -->
<g id="edge6" class="edge">
<title>logging&#45;&gt;supporting</title><style>.edge>path:hover{stroke-width:8}</style>
<path fill="none" stroke="black" d="M445.96,-523.91C429.66,-514.47 421.65,-494.44 417.72,-477.72"/>
<polygon fill="#10f910" stroke="black" points="421.14,-476.98 415.76,-467.85 414.28,-478.34 421.14,-476.98"/>
</g>
<!-- supporting_deploylist -->
<g id="node11" class="node">
<title>supporting_deploylist</title><style>.edge>path:hover{stroke-width:8}</style>
<ellipse fill="#4646a4" stroke="black" cx="193.96" cy="-371.27" rx="45.92" ry="21.43"/>
<text text-anchor="middle" x="193.96" y="-374.27" font-family="Helvetica,sans-Serif" font-size="10.00" fill="#ffffff">supporting.</text>
<text text-anchor="middle" x="193.96" y="-363.27" font-family="Helvetica,sans-Serif" font-size="10.00" fill="#ffffff">deploylist</text>
</g>
<!-- logging&#45;&gt;supporting_deploylist -->
<g id="edge7" class="edge">
<title>logging&#45;&gt;supporting_deploylist</title><style>.edge>path:hover{stroke-width:8}</style>
<path fill="none" stroke="black" d="M267.96,-448.7C251.06,-432.47 232.73,-413.56 218.54,-398.6"/>
<polygon fill="#10f910" stroke="black" points="220.94,-396.05 211.53,-391.18 215.85,-400.85 220.94,-396.05"/>
<path fill="none" stroke="black" d="M445.96,-523.91C381.51,-486.57 349.71,-511.05 286.96,-470.91 276.58,-464.27 276.86,-459.24 267.96,-450.7"/>
</g>
<!-- supporting_errorcodes -->
<g id="node12" class="node">
<title>supporting_errorcodes</title><style>.edge>path:hover{stroke-width:8}</style>
<ellipse fill="#0c0ce9" stroke="black" cx="551.96" cy="-449.7" rx="45.92" ry="21.43"/>
<text text-anchor="middle" x="551.96" y="-452.7" font-family="Helvetica,sans-Serif" font-size="10.00" fill="#ffffff">supporting.</text>
<text text-anchor="middle" x="551.96" y="-441.7" font-family="Helvetica,sans-Serif" font-size="10.00" fill="#ffffff">errorcodes</text>
</g>
<!-- logging&#45;&gt;supporting_errorcodes -->
<g id="edge8" class="edge">
<title>logging&#45;&gt;supporting_errorcodes</title><style>.edge>path:hover{stroke-width:8}</style>
<path fill="none" stroke="black" d="M445.96,-523.91C414.9,-505.92 464.45,-481.71 505.74,-466.15"/>
<polygon fill="#10f910" stroke="black" points="507.02,-469.41 515.2,-462.68 504.61,-462.84 507.02,-469.41"/>
</g>
<!-- supporting_generalSettings -->
<g id="node14" class="node">
<title>supporting_generalSettings</title><style>.edge>path:hover{stroke-width:8}</style>
<ellipse fill="#2424d0" stroke="black" cx="150.96" cy="-449.7" rx="59.29" ry="21.43"/>
<text text-anchor="middle" x="150.96" y="-452.7" font-family="Helvetica,sans-Serif" font-size="10.00" fill="#ffffff">supporting.</text>
<text text-anchor="middle" x="150.96" y="-441.7" font-family="Helvetica,sans-Serif" font-size="10.00" fill="#ffffff">generalSettings</text>
</g>
<!-- logging&#45;&gt;supporting_generalSettings -->
<g id="edge9" class="edge">
<title>logging&#45;&gt;supporting_generalSettings</title><style>.edge>path:hover{stroke-width:8}</style>
<path fill="none" stroke="black" d="M445.96,-523.91C425.63,-512.13 290.76,-481.3 210.6,-463.63"/>
<polygon fill="#10f910" stroke="black" points="211.14,-460.17 200.62,-461.44 209.64,-467 211.14,-460.17"/>
<path fill="none" stroke="black" d="M697.33,-594.02C644.98,-589.4 529.14,-574.1 445.96,-525.91"/>
</g>
<!-- supporting_generatezip -->
<g id="node15" class="node">
<title>supporting_generatezip</title><style>.edge>path:hover{stroke-width:8}</style>
<ellipse fill="#43439d" stroke="black" cx="960.96" cy="-371.27" rx="47.25" ry="21.43"/>
<text text-anchor="middle" x="960.96" y="-374.27" font-family="Helvetica,sans-Serif" font-size="10.00" fill="#ffffff">supporting.</text>
<text text-anchor="middle" x="960.96" y="-363.27" font-family="Helvetica,sans-Serif" font-size="10.00" fill="#ffffff">generatezip</text>
</g>
<!-- logging&#45;&gt;supporting_generatezip -->
<g id="edge10" class="edge">
<title>logging&#45;&gt;supporting_generatezip</title><style>.edge>path:hover{stroke-width:8}</style>
<path fill="none" stroke="black" d="M752.7,-595.41C833.92,-592.5 1063.8,-573.46 1035.96,-450.7"/>
<path fill="none" stroke="black" d="M1035.96,-448.7C1034.39,-425.75 1016.81,-407.13 999.07,-394.01"/>
<polygon fill="#10f910" stroke="black" points="1000.63,-390.84 990.41,-388.02 996.64,-396.59 1000.63,-390.84"/>
</g>
<!-- pathlib -->
<g id="node9" class="node">
<title>pathlib</title><style>.edge>path:hover{stroke-width:8}</style>
<ellipse fill="#2fdbdb" stroke="black" cx="771.96" cy="-524.91" rx="27" ry="18"/>
<text text-anchor="middle" x="771.96" y="-522.41" font-family="Helvetica,sans-Serif" font-size="10.00" fill="#000000">pathlib</text>
</g>
<!-- pathlib&#45;&gt;devops_fitnesse_tools_create_fitnesse_artifact_helpers_artifact -->
<g id="edge11" class="edge">
<title>pathlib&#45;&gt;devops_fitnesse_tools_create_fitnesse_artifact_helpers_artifact</title><style>.edge>path:hover{stroke-width:8}</style>
<path fill="none" stroke="black" d="M793.88,-514.08C813.92,-504.55 843.88,-488.92 866.96,-470.91 876.68,-463.33 877.86,-460 885.96,-450.7"/>
<path fill="none" stroke="black" d="M960.96,-313.06C960.96,-222.13 1000.48,-177.41 939.96,-109.54 909.75,-75.66 794.21,-56.33 709.46,-46.46"/>
<polygon fill="#2fdbdb" stroke="black" points="709.61,-42.95 699.28,-45.3 708.82,-49.91 709.61,-42.95"/>
<path fill="none" stroke="black" d="M885.96,-448.7C915.29,-415.04 879.94,-387.04 904.96,-350.06 921.54,-325.56 959.61,-343.62 960.96,-314.06"/>
</g>
<!-- pathlib&#45;&gt;devops_fitnesse_tools_create_fitnesse_artifact_helpers_fitnesseArtifactChecks -->
<g id="edge12" class="edge">
<title>pathlib&#45;&gt;devops_fitnesse_tools_create_fitnesse_artifact_helpers_fitnesseArtifactChecks</title><style>.edge>path:hover{stroke-width:8}</style>
<path fill="none" stroke="black" d="M747.41,-517.24C720.56,-509.17 677.09,-493.75 644.96,-470.91 624.33,-456.25 624.26,-446.97 606.96,-428.49 583.07,-402.97 551.96,-407.23 551.96,-372.27"/>
</g>
<!-- pathlib&#45;&gt;devops_fitnesse_tools_test_test_createFitNesseArtifact -->
<g id="edge13" class="edge">
<title>pathlib&#45;&gt;devops_fitnesse_tools_test_test_createFitNesseArtifact</title><style>.edge>path:hover{stroke-width:8}</style>
<path fill="none" stroke="black" d="M770.29,-506.51C767.95,-478.18 764.74,-420.44 771.96,-372.27"/>
</g>
<!-- pathlib&#45;&gt;supporting_generatezip -->
<g id="edge14" class="edge">
<title>pathlib&#45;&gt;supporting_generatezip</title><style>.edge>path:hover{stroke-width:8}</style>
<path fill="none" stroke="black" d="M885.96,-448.7C901.25,-431.16 919.52,-412.5 934.2,-398.01"/>
<polygon fill="#2fdbdb" stroke="black" points="936.82,-400.34 941.51,-390.84 931.92,-395.34 936.82,-400.34"/>
</g>
<!-- supporting&#45;&gt;devops_fitnesse_tools_create_fitnesse_artifact_createFitNesseArtifact -->
<g id="edge15" class="edge">
<title>supporting&#45;&gt;devops_fitnesse_tools_create_fitnesse_artifact_createFitNesseArtifact</title><style>.edge>path:hover{stroke-width:8}</style>
<path fill="none" stroke="black" d="M381.96,-370.27C384.38,-343.87 373.19,-338.08 361.96,-314.06"/>
<path fill="none" stroke="black" d="M401.81,-432.48C391.93,-417.51 379.94,-394.33 381.96,-372.27"/>
<path fill="none" stroke="black" d="M361.96,-313.06C352.47,-292.76 333.79,-278.82 313.56,-269.28"/>
<polygon fill="#0606ef" stroke="black" points="314.75,-265.98 304.18,-265.2 311.95,-272.4 314.75,-265.98"/>
</g>
<!-- supporting&#45;&gt;devops_fitnesse_tools_create_fitnesse_artifact_helpers_artifact -->
<g id="edge16" class="edge">
<title>supporting&#45;&gt;devops_fitnesse_tools_create_fitnesse_artifact_helpers_artifact</title><style>.edge>path:hover{stroke-width:8}</style>
<path fill="none" stroke="black" d="M361.96,-313.06C343.22,-272.96 360.76,-249.88 328.96,-219.08 280.72,-172.34 165.01,-206.92 195.96,-147.31"/>
</g>
<!-- supporting&#45;&gt;devops_fitnesse_tools_create_fitnesse_artifact_helpers_fitnesseArtifactChecks -->
<g id="edge17" class="edge">
<title>supporting&#45;&gt;devops_fitnesse_tools_create_fitnesse_artifact_helpers_fitnesseArtifactChecks</title><style>.edge>path:hover{stroke-width:8}</style>
<path fill="none" stroke="black" d="M534.96,-247.07C534.85,-228.41 529.43,-208.78 522.95,-191.92"/>
<polygon fill="#0606ef" stroke="black" points="526.06,-190.28 519.04,-182.35 519.58,-192.93 526.06,-190.28"/>
<path fill="none" stroke="black" d="M381.96,-370.27C389.88,-283.88 535.49,-335.82 534.96,-249.07"/>
</g>
<!-- supporting&#45;&gt;devops_fitnesse_tools_create_fitnesse_artifact_helpers_fitnesseSettings -->
<g id="edge18" class="edge">
<title>supporting&#45;&gt;devops_fitnesse_tools_create_fitnesse_artifact_helpers_fitnesseSettings</title><style>.edge>path:hover{stroke-width:8}</style>
<path fill="none" stroke="black" d="M361.96,-313.06C349.1,-285.54 392.38,-278.76 385.96,-249.07"/>
</g>
<!-- supporting&#45;&gt;devops_fitnesse_tools_test_test_createFitNesseArtifact -->
<g id="edge19" class="edge">
<title>supporting&#45;&gt;devops_fitnesse_tools_test_test_createFitNesseArtifact</title><style>.edge>path:hover{stroke-width:8}</style>
<path fill="none" stroke="black" d="M435.2,-434.98C484.3,-403.26 606.68,-324.2 674.97,-280.08"/>
<polygon fill="#0606ef" stroke="black" points="676.93,-282.98 683.43,-274.61 673.13,-277.1 676.93,-282.98"/>
</g>
<!-- supporting_deploylist&#45;&gt;devops_fitnesse_tools_create_fitnesse_artifact_helpers_artifact -->
<g id="edge20" class="edge">
<title>supporting_deploylist&#45;&gt;devops_fitnesse_tools_create_fitnesse_artifact_helpers_artifact</title><style>.edge>path:hover{stroke-width:8}</style>
<path fill="none" stroke="black" d="M170.97,-352.69C144.59,-330.19 106.59,-289.31 119.96,-249.07"/>
</g>
<!-- supporting_errorcodes&#45;&gt;devops_fitnesse_tools_create_fitnesse_artifact_createFitNesseArtifact -->
<g id="edge21" class="edge">
<title>supporting_errorcodes&#45;&gt;devops_fitnesse_tools_create_fitnesse_artifact_createFitNesseArtifact</title><style>.edge>path:hover{stroke-width:8}</style>
<path fill="none" stroke="black" d="M531.7,-430.53C500.08,-402.78 436.35,-349.26 375.96,-313.06 351.69,-298.51 323.54,-285.17 298.74,-274.47"/>
<polygon fill="#0c0ce9" stroke="black" points="299.98,-271.2 289.41,-270.51 297.24,-277.64 299.98,-271.2"/>
</g>
<!-- supporting_errorcodes&#45;&gt;devops_fitnesse_tools_create_fitnesse_artifact_helpers_artifact -->
<g id="edge22" class="edge">
<title>supporting_errorcodes&#45;&gt;devops_fitnesse_tools_create_fitnesse_artifact_helpers_artifact</title><style>.edge>path:hover{stroke-width:8}</style>
<path fill="none" stroke="black" d="M722.96,-313.06C704.46,-266.87 646.11,-317.38 616.96,-277.06 595.45,-247.3 602.69,-144.54 609.24,-83.79"/>
<polygon fill="#0c0ce9" stroke="black" points="612.73,-84.01 610.36,-73.69 605.78,-83.24 612.73,-84.01"/>
<path fill="none" stroke="black" d="M590.65,-438.22C648.17,-420.3 747.04,-379.28 722.96,-314.06"/>
</g>
<!-- supporting_errorcodes&#45;&gt;devops_fitnesse_tools_create_fitnesse_artifact_helpers_fitnesseArtifactChecks -->
<g id="edge23" class="edge">
<title>supporting_errorcodes&#45;&gt;devops_fitnesse_tools_create_fitnesse_artifact_helpers_fitnesseArtifactChecks</title><style>.edge>path:hover{stroke-width:8}</style>
<path fill="none" stroke="black" d="M551.96,-428.26C551.96,-412.87 551.96,-391.25 551.96,-372.27"/>
</g>
<!-- supporting_errorcodes&#45;&gt;devops_fitnesse_tools_test_test_createFitNesseArtifact -->
<g id="edge24" class="edge">
<title>supporting_errorcodes&#45;&gt;devops_fitnesse_tools_test_test_createFitNesseArtifact</title><style>.edge>path:hover{stroke-width:8}</style>
<path fill="none" stroke="black" d="M722.96,-313.06C719.79,-305.14 718.52,-296.22 718.3,-287.6"/>
<polygon fill="#0c0ce9" stroke="black" points="721.8,-287.4 718.49,-277.34 714.8,-287.27 721.8,-287.4"/>
</g>
<!-- supporting_errorcodes&#45;&gt;supporting_deploylist -->
<g id="edge25" class="edge">
<title>supporting_errorcodes&#45;&gt;supporting_deploylist</title><style>.edge>path:hover{stroke-width:8}</style>
<path fill="none" stroke="black" d="M516.67,-435.91C508.62,-433.24 500.04,-430.6 491.96,-428.49 407.46,-406.4 307.33,-389.33 247.31,-380.05"/>
<polygon fill="#0c0ce9" stroke="black" points="247.73,-376.58 237.31,-378.52 246.67,-383.49 247.73,-376.58"/>
</g>
<!-- supporting_errorcodes&#45;&gt;supporting_generatezip -->
<g id="edge26" class="edge">
<title>supporting_errorcodes&#45;&gt;supporting_generatezip</title><style>.edge>path:hover{stroke-width:8}</style>
<path fill="none" stroke="black" d="M592.64,-439.51C608.88,-435.93 627.78,-431.88 644.96,-428.49 736.75,-410.36 844.07,-391.83 907.06,-381.22"/>
<polygon fill="#0c0ce9" stroke="black" points="907.88,-384.63 917.16,-379.53 906.72,-377.73 907.88,-384.63"/>
</g>
<!-- supporting_filehandling -->
<g id="node13" class="node">
<title>supporting_filehandling</title><style>.edge>path:hover{stroke-width:8}</style>
<ellipse fill="#4949ac" stroke="black" cx="45.96" cy="-371.27" rx="45.92" ry="21.43"/>
<text text-anchor="middle" x="45.96" y="-374.27" font-family="Helvetica,sans-Serif" font-size="10.00" fill="#ffffff">supporting.</text>
<text text-anchor="middle" x="45.96" y="-363.27" font-family="Helvetica,sans-Serif" font-size="10.00" fill="#ffffff">filehandling</text>
</g>
<!-- supporting_filehandling&#45;&gt;devops_fitnesse_tools_create_fitnesse_artifact_helpers_artifact -->
<g id="edge27" class="edge">
<title>supporting_filehandling&#45;&gt;devops_fitnesse_tools_create_fitnesse_artifact_helpers_artifact</title><style>.edge>path:hover{stroke-width:8}</style>
<path fill="none" stroke="black" d="M60.75,-350.8C77.56,-327.72 104.64,-287.55 119.96,-249.07"/>
<path fill="none" stroke="black" d="M119.96,-247.07C140.06,-195.08 170.28,-196.78 195.96,-147.31"/>
<path fill="none" stroke="black" d="M195.96,-145.31C204.26,-129.33 200.42,-120.14 214.96,-109.54 262.48,-74.89 417.72,-54.94 520.24,-45.23"/>
<polygon fill="#4949ac" stroke="black" points="520.67,-48.7 530.31,-44.29 520.02,-41.73 520.67,-48.7"/>
</g>
<!-- supporting_generalSettings&#45;&gt;devops_fitnesse_tools_create_fitnesse_artifact_createFitNesseArtifact -->
<g id="edge28" class="edge">
<title>supporting_generalSettings&#45;&gt;devops_fitnesse_tools_create_fitnesse_artifact_createFitNesseArtifact</title><style>.edge>path:hover{stroke-width:8}</style>
<path fill="none" stroke="black" d="M119.96,-313.06C126.87,-294.6 142.22,-281.3 159.48,-271.78"/>
<polygon fill="#2424d0" stroke="black" points="161.3,-274.78 168.64,-267.14 158.14,-268.53 161.3,-274.78"/>
</g>
<!-- supporting_generalSettings&#45;&gt;devops_fitnesse_tools_create_fitnesse_artifact_helpers_artifact -->
<g id="edge29" class="edge">
<title>supporting_generalSettings&#45;&gt;devops_fitnesse_tools_create_fitnesse_artifact_helpers_artifact</title><style>.edge>path:hover{stroke-width:8}</style>
<path fill="none" stroke="black" d="M139.2,-428.6C125.14,-401.86 105.25,-353.37 119.96,-314.06"/>
<path fill="none" stroke="black" d="M119.96,-313.06C130.16,-286.51 109.71,-275.6 119.96,-249.07"/>
</g>
<!-- supporting_generalSettings&#45;&gt;devops_fitnesse_tools_create_fitnesse_artifact_helpers_fitnesseSettings -->
<g id="edge30" class="edge">
<title>supporting_generalSettings&#45;&gt;devops_fitnesse_tools_create_fitnesse_artifact_helpers_fitnesseSettings</title><style>.edge>path:hover{stroke-width:8}</style>
<path fill="none" stroke="black" d="M185.14,-432.21C204.7,-422.02 229.2,-407.97 248.96,-392.49 266.31,-378.9 390.62,-270.61 385.96,-249.07"/>
<path fill="none" stroke="black" d="M385.96,-247.07C379.98,-225.23 366.32,-204.68 352.2,-187.96"/>
<polygon fill="#2424d0" stroke="black" points="354.5,-185.28 345.27,-180.08 349.24,-189.9 354.5,-185.28"/>
</g>
<!-- supporting_generalSettings&#45;&gt;supporting_filehandling -->
<g id="edge31" class="edge">
<title>supporting_generalSettings&#45;&gt;supporting_filehandling</title><style>.edge>path:hover{stroke-width:8}</style>
<path fill="none" stroke="black" d="M125.81,-430.39C111.48,-419.96 93.37,-406.78 78.03,-395.61"/>
<polygon fill="#2424d0" stroke="black" points="79.97,-392.7 69.82,-389.64 75.85,-398.36 79.97,-392.7"/>
</g>
<!-- supporting_generatezip&#45;&gt;devops_fitnesse_tools_create_fitnesse_artifact_helpers_artifact -->
<g id="edge32" class="edge">
<title>supporting_generatezip&#45;&gt;devops_fitnesse_tools_create_fitnesse_artifact_helpers_artifact</title><style>.edge>path:hover{stroke-width:8}</style>
<path fill="none" stroke="black" d="M960.96,-349.98C960.96,-339.29 960.96,-325.97 960.96,-314.06"/>
</g>
<!-- unittest -->
<g id="node16" class="node">
<title>unittest</title><style>.edge>path:hover{stroke-width:8}</style>
<ellipse fill="#c247c2" stroke="black" cx="828.96" cy="-449.7" rx="28.69" ry="18"/>
<text text-anchor="middle" x="828.96" y="-447.2" font-family="Helvetica,sans-Serif" font-size="10.00" fill="#ffffff">unittest</text>
</g>
<!-- unittest&#45;&gt;devops_fitnesse_tools_test_helpers_test_fitnesseSettings -->
<g id="edge33" class="edge">
<title>unittest&#45;&gt;devops_fitnesse_tools_test_helpers_test_fitnesseSettings</title><style>.edge>path:hover{stroke-width:8}</style>
<path fill="none" stroke="black" d="M847.96,-313.06C831.27,-275.25 833.31,-227.68 838.32,-193.22"/>
<polygon fill="#c247c2" stroke="black" points="841.83,-193.39 839.95,-182.97 834.92,-192.29 841.83,-193.39"/>
</g>
<!-- unittest&#45;&gt;devops_fitnesse_tools_test_test_createFitNesseArtifact -->
<g id="edge34" class="edge">
<title>unittest&#45;&gt;devops_fitnesse_tools_test_test_createFitNesseArtifact</title><style>.edge>path:hover{stroke-width:8}</style>
<path fill="none" stroke="black" d="M847.96,-313.06C840.37,-294.1 824.35,-280.69 806.24,-271.24"/>
<polygon fill="#c247c2" stroke="black" points="807.74,-268.08 797.21,-266.91 804.72,-274.39 807.74,-268.08"/>
<path fill="none" stroke="black" d="M836.46,-432.31C847.23,-406.3 864.11,-354.38 847.96,-314.06"/>
</g>
<!-- unittest_mock -->
<g id="node17" class="node">
<title>unittest_mock</title><style>.edge>path:hover{stroke-width:8}</style>
<ellipse fill="#b653b6" stroke="black" cx="698.96" cy="-449.7" rx="44.98" ry="18"/>
<text text-anchor="middle" x="698.96" y="-447.2" font-family="Helvetica,sans-Serif" font-size="10.00" fill="#ffffff">unittest.mock</text>
</g>
<!-- unittest_mock&#45;&gt;devops_fitnesse_tools_test_test_createFitNesseArtifact -->
<g id="edge35" class="edge">
<title>unittest_mock&#45;&gt;devops_fitnesse_tools_test_test_createFitNesseArtifact</title><style>.edge>path:hover{stroke-width:8}</style>
<path fill="none" stroke="black" d="M771.96,-370.27C778.53,-340.6 764.82,-308.81 750.25,-285.24"/>
<polygon fill="#b653b6" stroke="black" points="753.05,-283.11 744.67,-276.63 747.17,-286.92 753.05,-283.11"/>
<path fill="none" stroke="black" d="M723.66,-434.5C743.19,-421.34 767.85,-399.67 771.96,-372.27"/>
</g>
</g>
</svg>
